<?xml version="1.0" encoding="UTF-8"?>
<!-- Generator: Adobe Illustrator 21.1.0, SVG Export Plug-In . SVG Version: 6.00 Build 0)  -->
<svg version="1.1" id="Layer_1" xmlns="http://www.w3.org/2000/svg" xmlns:xlink="http://www.w3.org/1999/xlink" x="0px" y="0px" viewBox="0 0 648.4 116.4" style="enable-background:new 0 0 648.4 116.4;" xml:space="preserve">
<style type="text/css">
	.st0{fill:#FFFFFF;}
	.st1{fill:#F6EB16;}
	.st2{fill:none;}
</style>
<g>
	<path class="st0" d="M381.5,84.2c-0.3,0.7-0.5,1.1-1.1,2.1c3.3,1.2,5.1,2.6,5.1,4c0,4.7-19.3,8.5-43.1,8.5s-43.1-3.8-43.1-8.5   c0-1.7,2.6-3.3,7.1-4.7c-0.1-0.3-0.2-0.9-0.5-1.4c-0.2-0.3-0.6-0.6-0.6-0.6c-8.7,2.2-14,5.1-14,8.3c0,6.7,22.9,12.1,51.1,12.1   s51.1-5.4,51.1-12.1C393.5,89.1,388.8,86.3,381.5,84.2z"/>
	<g>
		<path class="st0" d="M324.8,93c-0.4-0.1-0.8-0.3-1.3-0.5c-0.4-0.2-0.8-0.4-1.2-0.5c0.6-0.2,1.2-0.4,1.8-1l-0.1-0.2l-1.1,0.3    c-0.8,0.2-1.4,0.4-2.1,0.6c-0.3,0.1-0.5,0.2-0.5,0.4c0,0.1,0,0.3,0.1,0.4c-0.2,0.1-0.4,0.1-0.6,0.2c-0.5,0.2-1,0.3-1.5,0.3    s-0.9-0.1-1.4-0.4c-0.2-0.1-0.4-0.2-0.7-0.2c-0.4,0-0.8,0.2-1.2,0.3c-0.4,0.1-0.8,0.3-1.1,0.3c-0.1,0-0.3,0-0.4,0    c-1.4,0-2.2-0.6-2.9-2c-1-2.2-2-4.6-2.9-7c-0.2-0.4-0.5-0.7-0.8-0.9c-0.3-0.2-0.5-0.4-0.7-0.7h0.1c1.7,0,2.9,1.1,4.1,2.2l0.2-0.2    c-0.3-0.5-0.6-0.9-1-1.4c-1.2-1.6-2.4-3.2-1.7-5.3L309,81l0.2-0.1c-0.4-1.3-0.4-2.7-0.3-4.1c0-0.7,0.1-1.4,0-2.1    c-0.1-1.1-1-1.5-1.9-1.8c-0.3-0.1-0.6-0.2-0.8-0.3c-0.1-0.1-0.3-0.1-0.4-0.2c-0.2-0.1-0.4-0.2-0.5-0.3c0.9-0.3,1.8-0.4,2.5-0.4    c3.2,0,3.6,2.8,4.1,5.8c0.1,0.5,0.2,1,0.3,1.5h0.2v-3.3c0.1,0.1,0.1,0.2,0.1,0.3c0.3,0.6,0.5,1.2,0.8,1.7c0.2,0.3,0.4,0.7,0.7,0.7    c0.1,0,0.3,0,0.4-0.1c0.2-0.1,0.3-0.3,0.3-0.5c0-0.3-0.2-0.6-0.3-0.7c-0.9-0.9-0.7-1.7-0.4-2.9c0-0.1,0.1-0.2,0.1-0.4    c0,0.1,0,0.1,0.1,0.2c0.2,0.7,0.4,1.3,1.2,1.7l0.3,0.1l-0.1-0.3c-0.1-0.4-0.1-0.8,0-1.2c0.1-0.9,0.2-1.8-1.3-2.4    c-0.5-0.2-0.7-0.6-0.7-1c0-0.8,0.8-1.9,2.3-2.4l0.3-0.1l-0.3-0.1c-3.2-1.4-6.2-4.2-6.7-6.2c-0.1-0.6-0.1-1,0.2-1.3l0.1-0.1    l-0.1-0.1c-2.5-2.2-3.9-4.2-4.5-6.5l-0.1-0.2c-0.1-0.5-0.3-1-0.1-1.2c0.1-0.1,0.3-0.2,0.5-0.2s0.4,0,0.7,0.1l0.3,0.1l-0.1-0.2    c-0.2-0.3-0.4-0.7-0.6-1c-0.4-0.7-0.9-1.4-1.1-2.1c0-0.1-0.1-0.2-0.1-0.4c-0.2-0.4-0.4-1-0.2-1.3l0.2,0.3c0.4,0.5,0.8,0.7,1.2,0.7    c0.2,0,0.5-0.1,0.8-0.2l0.1-0.1l-0.1-0.1c-0.4-0.4-0.8-0.4-1.2-0.4c-0.2,0-0.4,0-0.7-0.1l-0.3-0.1c0,0,0,0,0-0.1    c0.2-0.3,0.5-0.4,1.1-0.5h0.2l-0.1-0.2c-0.2-0.4-0.4-0.8-0.5-1.2c-0.7-1.4-1.3-2.7-0.5-4.3c0.3,0,0.6,0.2,0.9,0.4    c0.2,0.2,0.4,0.3,0.7,0.5l0.3,0.1l-0.3-1.2c-0.2-0.6-0.3-1.1-0.4-1.6v-0.2c-0.2-0.7-0.2-1.1,0.4-1.4c0.3-0.1,0.7-0.2,1-0.2    c0.4,0,0.8,0.1,1.1,0.4c0.1,0.1,0.1,0.1,0.2,0.2c0.5,0.6,1.1,1.4,1.8,2.3c2.7,3.5,7.1,9.2,13.5,14.1l0.1,0.1    c0.8,0.6,1.6,1.2,2.4,1.9c0.4,0.3,0.7,0.6,0.5,1.1V58h0.1c2.5,0.9,3,3.1,3.4,5.2l0.1,0.3c0.2,1.1,0.2,2.4,0.2,3.5c0,0.5,0,1,0,1.5    c0,1.4,0.4,2.3,1.3,3.1c0.3,0.3,0.6,0.4,0.9,0.4c0.2,0,0.3,0,0.6-0.1c0.6-0.1,0.7-0.6,0.7-1v-0.1c0.6-3.3,3.1-5.9,6.2-6.3    c0.1,0,0.2,0,0.3,0c0.3-0.2,0.6-0.4,0.9-0.7c2.5-1.9,5.8-4.6,5.6-7.5c-0.2-2.6-1.9-4.1-3.6-5.5c-0.4-0.3-0.8-0.7-1.2-1.1    c0.1,0,0.2-0.1,0.2-0.1c0.2,0,0.4,0.1,0.7,0.3c0.3,0.2,0.6,0.4,0.9,0.4h0.2l-0.1-0.2c-0.4-0.9-1-1.4-1.8-1.4c-0.2,0-0.4,0-0.5,0.1    c0,0,0,0,0-0.1c0,0,0.1-0.1,0.2-0.1s0.3-0.1,0.4-0.3v-0.1h-0.1c-0.2-0.1-0.3-0.1-0.4-0.1c-0.3,0-0.6,0.2-0.8,0.6    c-0.1,0.3-0.2,0.5-0.3,0.8l-0.1,0.2c-0.2-0.3-0.4-0.5-0.5-0.8l0.2-0.1c-0.3-0.9,0.4-1.4,0.8-1.6h0.1v-0.1l0,0    c0.6,0,1.2-0.1,1.8-0.2c0.8-0.1,1.6-0.2,2.4-0.2c1.3,0,2.3,0.3,3.1,1c0.5,0.3,0.9,0.7,1.3,1.1c1.3,1.1,2.7,2.3,4.5,2.8    c-0.5,0.8-1.3,0.9-2,1c-0.2,0-0.4,0.1-0.5,0.1h-0.1l0.1,0.1c1.8,4.4,0.3,8.5-1.5,11.9c-0.8,1.5-1,2.6-0.7,3.4s1,1.5,2.4,2.2    c0.3,0.2,0.6,0.3,0.9,0.5c0.2,0.1,0.4,0.3,0.6,0.4s0.3,0.3,0.5,0.5c0.3,0.3,0.5,0.6,0.9,0.6c0.2,0,0.3,0,0.5-0.2    c1-0.6,1.6-1.7,1.6-3c0-0.7,0.1-1.4,0.1-2.1c0.1-1.1,0.2-2.3,0.1-3.4c-0.4-3.2,1.6-5.2,3.9-7.2c3.8-3.3,7.6-6.8,11.3-10.5    c0.4-0.4,1.5-1.6,2.5-2.7c0.7-0.8,1.4-1.6,1.5-1.6h-0.2v-0.1l0.2,0.1c0.2-0.2,0.4-0.5,0.7-0.9c0.5-0.8,1.2-1.8,2.2-2.7    c-0.6,0.7-1.1,1.4-1.5,2.1c-0.6,0.9-1.2,1.8-2,2.5c-0.2,0.2-0.3,0.3-0.4,0.5s-0.2,0.3-0.4,0.5c-0.1,0.2-0.3,0.4-0.4,0.6l-0.2,0.2    c-0.2,0.3-0.4,0.5-0.7,0.8l-0.2,0.2c-0.3,0.3-0.6,0.6-1.1,1c-1.5,1.5-4,3.9-7.6,7.2l-0.8,0.7c-0.7,0.6-1.4,1.2-2.1,1.7l-0.2,0.2    h0.1c-0.9,0.8-1.8,1.6-2.8,2.4l0.2,0.2c0.4-0.3,1.6-1.3,3.2-2.6c0.3,0,0.6-0.3,0.8-0.6c0.1-0.1,0.2-0.2,0.3-0.3    c2.3-1.9,4.7-4,7-6.3c2.3-2.2,3.7-3.6,4.1-4.3l0,0c2-2.3,3.7-4.6,5.3-7.1l-0.1-0.1c0.2-0.1,0.5-0.3,0.8-0.3c0.2,0,0.4,0.1,0.5,0.2    c0.5,0.3,0.4,0.9,0.3,1.5c-0.1,0.7-0.2,1.3-0.4,1.9l-0.2,1.1l0.2-0.1c0.2-0.1,0.2-0.1,0.3-0.2c0.2-0.2,0.4-0.4,0.5-0.7    c0.2-0.4,0.4-0.7,0.7-0.7c0.1,0,0.2,0,0.4,0.1c0.9,0.6,0.5,1.7,0.3,2.6c0,0.1-0.1,0.3-0.1,0.4c-0.1,0.6-0.4,1.1-0.7,1.6    c-0.1,0.2-0.3,0.5-0.4,0.7l-0.1,0.1h0.1c0.8,0.3,1.3,0.7,1.4,1.3c0.2,1.1-0.6,2.6-2.9,5l-0.1,0.1l0.2,0.1c0.5,0.1,0.7,0.5,0.8,0.9    c0.2,0.8-0.1,2-0.8,2.8c-0.2,0.2-0.3,0.3-0.6,0.5c-1,0.7-1.6,1.3-1.6,2.9c0,2-1.8,3.5-3.7,4.8c-0.1,0.1-0.3,0.2-0.4,0.3    c-0.8,0.5-1.7,1-1.6,2.4c0,0.3-0.3,0.8-0.7,1.2c-0.2,0.2-0.4,0.4-0.5,0.6l-0.1,0.1l0.1,0.1c1.1,1.2,1.5,1.9,1.4,2.4    c-0.1,0.4-0.6,0.7-1.7,1.1H371c0,0,0.2,0.4,0.3,0.6c0.2,0.3,0.4,0.6,0.5,1c0.2,0.5,0.3,0.9-0.2,1.1c-0.1,0.1-0.2,0.1-0.2,0.1    c-0.1,0-0.1-0.1-0.2-0.3c0-0.1-0.1-0.2-0.2-0.3c-0.2-0.1-0.4-0.1-0.7-0.1c-0.2,0-0.3,0-0.5,0c-0.1,0-0.3,0-0.4,0h-0.1v0.1    c0,0.1,0,0.1-0.1,0.2s-0.2,0.3-0.1,0.7c0,0.1,0,0.1,0,0.1s0,0-0.1,0s-0.1,0-0.2,0s-0.2,0-0.3,0c-0.2,0-0.3,0-0.3,0.1l-0.1,0.1v0.1    c0.6,0.9,0.1,1.4-0.5,2c-0.2,0.2-0.4,0.4-0.5,0.6c-0.2,0.3-0.6,0.5-1.1,0.5c-0.3,0-0.6-0.1-0.8-0.3c-0.4-0.5-0.1-0.9,0.3-1.4    c0.2-0.2,0.3-0.4,0.4-0.7l-0.2-0.1c-0.1,0.1-0.3,0.3-0.5,0.4c-0.5,0.3-1,0.6-0.8,1.5c0,0.1,0,0.2,0,0.3c-0.1,0.1-0.3,0.2-0.5,0.2    c-0.3,0.1-0.7,0.2-1,0.2c-0.3,0.1-0.6,0.2-1,0.2c-0.1,0-0.2,0.1-0.3,0.1c-0.1,0.1-0.3,0.1-0.4,0.1s-0.2,0-0.3-0.2    c-0.2-0.4,0-0.6,0.3-1c0.1-0.1,0.1-0.2,0.2-0.3l0.1-0.1l-2.6-1.1l-0.1,0.2c0.2,0.2,0.4,0.3,0.5,0.5c0.4,0.3,0.7,0.5,0.6,0.7    c0,0.1-0.2,0.3-0.4,0.5l-0.1,0.1l0.1,0.1c0.5,0.8,1,1.1,1.8,1.1c0.5,0,1-0.2,1.5-0.3c0.5-0.2,1-0.3,1.5-0.3c0.2,0,0.3,0,0.5,0.1    l-1.3,1.4l0.3,0.3h0.2c0.4-0.2,0.7-0.5,1.1-0.7c0.8-0.5,1.7-1,2.5-1.6c0.6-0.4,1-1,1.3-1.5c0.4-0.6,0.8-1.2,1.5-1.6l0.5,1.2    l0.1-0.1c0.2-0.1,0.4-0.3,0.6-0.4c0.8-0.6,1.7-1.3,2.8-1.3c0.2,0,0.5,0,0.7,0.1c0.3,0.1,0.6,0.2,1,0.3c0.8,0.3,1.7,0.6,2.6,0.6    c0.3,0,0.5,0,0.8-0.1c-0.8,1.2-1.7,1.7-2.9,1.7c-0.2,0-0.4,0-0.7-0.1c-0.3,0-0.5-0.1-0.7-0.1c-1.9,0-3.2,1.1-3.8,3.1l0.2,0.1    l0.3-0.3c1-1,1.9-1.9,3.5-1.9l0,0c-0.2,0.1-0.4,0.2-0.5,0.3c-0.9,0.4-1.7,0.9-1.8,2.4l0.2,0.1c0.6-1.2,1.3-1.7,2.3-1.7    c0.3,0,0.7,0,1.1,0.1c0.1,0,0.2,0,0.3,0c0.7,0,1.4-0.5,2.1-1.4c0.5-0.6,1-1.2,2.1-1.4c-2.1,2.1-3.7,3.5-6.2,4.1l-0.5,0.1l0.4,0.1    c0.3,0.1,0.6,0.1,0.9,0.1c0.4,0,0.7-0.1,1.1-0.1c0.1,0,0.3,0,0.4-0.1c-3.1,0.9-6.6,2.2-9.7,4.7l-0.3,0.3h0.4    c1-0.1,1.9-0.6,2.7-1.1c0.9-0.5,1.8-1,2.8-1c0.3,0,0.6,0,0.9,0.1l-2.6,0.4v0.2c0.8,0.1,1.7,0.1,2.5,0.1c2.9,0,3.7-0.7,5.8-3.8    c0.6-0.9,1.4-1.5,2.4-2c-0.3,0.8-0.6,1.5-0.9,2.3c-0.9,2.4-1.8,4.6-3.5,6.5c-0.5,0.5-1.1,0.8-2,1c-1.3,0.2-2.5,0.5-3.7,0.8    l-0.6,0.1c-0.2,0-0.4,0.4-0.4,0.6c0,0.1,0,0.2-0.1,0.3c0,0-0.1,0.1-0.3,0.1h-0.2c-0.4,0-0.5-0.1-0.5-0.3c0-0.2,0-0.5,0.5-0.6    c0.4-0.1,0.8-0.2,1.1-0.6l0.2-0.3l-3,0.5l0.1,0.2c0.2,0.4,0.3,0.8,0.2,0.9c-0.1,0.1-0.3,0.2-0.4,0.2s-0.3,0-0.4-0.1    c-0.3-0.1-0.6-0.3-0.9-0.6c-0.1-0.1-0.3-0.2-0.4-0.3l-0.1-0.1l-0.1,0.1c-0.4,0.4-0.2,0.8,0,1c0,0.1,0.1,0.1,0.1,0.2    c-0.8-0.2-1.2-0.6-1.5-1.7V89l-0.1,0.1c-1.4,0.8-2.6,1.2-3.8,1.2c-0.8,0-1.6-0.2-2.4-0.5c0.5-0.6,1.1-0.8,1.8-1.1    c0.3-0.1,0.5-0.2,0.8-0.3l-0.1-0.2c-0.2,0-0.4,0.1-0.7,0.1c-1.2,0.2-2.6,0.4-2.7,2.3c-0.4-0.3-0.8-0.3-1.2-0.3    c-0.3,0-0.6,0-0.8-0.1l0,0c1.1-1.2,1.7-2,2.7-2.2v-0.2c-0.3,0-0.7,0.1-1,0.2c-0.4,0.1-0.8,0.2-1.2,0.2l0,0c-0.5,0-1-0.1-1.6-0.2    c-0.2,0-0.5-0.1-0.7-0.1c0.2,0,0.4,0,0.6,0s0.5,0,0.7,0c1.1,0,2.4-0.1,3.6-1.2c0.4-0.4,0.8-0.8,1.2-1.3c0.2-0.3,0.4-0.5,0.7-0.8    l-0.1-0.2l-0.8,0.3c0.1-0.2,0.2-0.3,0.3-0.5c0.3-0.5,0.5-0.9,0.8-1.3s0.6-0.8,1-1.1c0.2-0.2,0.3-0.3,0.5-0.5l-0.2-0.2    c-1.2,0.7-2,1.7-2.8,3.1c-0.7,1.5-2.3,2.5-3.9,2.5c-0.5,0-1.1-0.1-1.5-0.3c3.6-0.3,5.6-2.2,6.5-5.9l-0.2-0.1    c-2.5,4.2-3.5,5.1-6.1,5.1c-0.2,0-0.3,0-0.5,0c1.3-0.8,1.8-2,2.3-3.2c0.4-1,0.9-1.9,1.7-2.6l-0.1-0.2c-1.1,0.7-1.7,1.8-2.3,2.9    c-0.7,1.3-1.4,2.5-2.7,3.1c1.1-0.8,1.7-1.9,2.3-3.1c1-1.8,1.9-3.5,4.3-3.8v-0.2c-1.2,0.1-2.6,0.2-3.4,1.2    c-0.5,0.6-0.9,1.4-1.3,2.1c-0.1,0.3-0.3,0.6-0.5,0.8l0.5-1.4l-0.7,0.4l-0.1-2.1h-0.6v3.7h-0.1v-3.7h-0.2c-0.3,0.7-0.2,1.5-0.2,2.3    s0,1.6-0.3,2.4V84c0.1-0.8,0.3-1.6-0.2-2.5l-0.2-0.3l-0.1,0.4c0,0.2-0.1,0.5-0.1,0.8c-0.2,1.1-0.4,2.2-1.3,3.3    c0.8-1.8,1.4-3.3,1.4-5v0.1l0.2-0.1c-0.3-1.4,0.5-1.7,1.5-2.1c0.7-0.3,1.4-0.5,1.6-1.3l-0.2-0.1c-0.3,0.4-0.7,0.5-1.2,0.6    c-0.2,0-0.5,0.1-0.7,0.2c-0.6,0.2-0.9,0.6-1.2,1.1c0,0.1-0.1,0.1-0.1,0.2l-0.2-0.7l-0.2,0.2c-0.5,0.7-0.4,1.3-0.4,2    c0,0.1,0,0.2,0,0.3l-0.3-1.4l-0.1,0.4c-0.3,0.7-0.2,1.4-0.1,1.9c0.2,1-0.6,2.7-1.4,3.6c-0.4,0.5-0.9,0.8-1.2,0.8h-0.2    c-0.8,0-1.4,0.3-1.9,0.7c1.2-1.5,2.1-3.3,2-4.3H348c-0.3,1.8-1.4,2.9-2.5,4c-0.7,0.7-1.4,1.4-1.8,2.3l-0.2,0.3l0.3-0.2    c0.5-0.2,1.2-0.8,1.8-1.4c-0.1,0.1-0.2,0.2-0.2,0.3c-0.5,0.7-1,1.3-1.8,1.7l-0.3,0.1l0.3,0.1c0.3,0.1,0.5,0.1,0.7,0.1    c0.5,0,0.7-0.3,0.9-0.5c1.2-1.6,2.5-2.4,4.1-2.4c0.3,0,0.6,0,0.9,0.1l0.7,0.1c1.1,0.2,2.2,0.4,3.3,0.5l-0.1,0.2l2.2,1l-0.3,1.2    c-0.1-0.1-0.2-0.2-0.2-0.3v-0.1h-0.1c-0.1,0-0.3,0-0.4,0.1c-0.3,0.2-0.1,0.4,0,0.6c0.1,0.1,0.1,0.1,0.1,0.2h-0.1    c-1.2,0-2.3,0.5-3.3,1.5c-0.3-0.4-0.7-0.6-1.2-0.7c0.4-0.1,0.8-0.2,1.2-0.3c0.8-0.1,1.6-0.2,2.1-1l0.1-0.1l-0.3-0.4    c0.1,0,0.2-0.1,0.3-0.1c0.3-0.1,0.7-0.2,0.8-0.6V89l-0.1-0.1c-2-1.1-3.5-1.5-4.6-1.5c-1.3,0-2.3,0.6-3.1,2l0.2,0.2    c0.9-0.9,1.8-1.4,2.7-1.4c0.5,0,1,0.1,1.6,0.4c-0.4-0.1-0.8-0.1-1.1-0.1c-1.3,0-2.4,0.5-3.4,1.7l0.2,0.2c1.1-0.8,2.1-1.1,3.2-1.1    c0.7,0,1.4,0.2,2.2,0.5c-0.3,0-0.6,0-0.8,0c-0.3,0-0.6,0-1,0c-0.7,0-1.3,0.1-1.9,0.3l-0.2,0.1l0.2,0.1c0.4,0.3,0.9,0.4,1.3,0.5    c-0.2,0-0.3,0-0.4,0c-0.3,0.1-0.5,0.1-0.8,0.1c-0.7,0-1.4,0.1-2.1,0.8c-0.3,0.3-0.6,0.4-0.8,0.4c-0.4,0-0.8-0.4-1-1    c0.7-0.4,1.1-1,1.5-1.6c0.5-0.7,0.9-1.3,1.7-1.7l-0.1-0.2c-0.9,0.2-1.5,0.9-2.1,1.6c-0.7,0.8-1.4,1.6-2.5,1.6l0,0    c-0.4,0-0.8,0.1-1.2,0.2c-0.4,0.1-0.8,0.2-1.2,0.2c-0.6,0-1-0.3-1.4-0.8l-0.1-0.1l-0.1,0.1c-0.1,0.1-0.1,0.2-0.2,0.3    c-0.2,0.2-0.3,0.5-0.5,0.5c-0.1,0-0.2-0.1-0.4-0.5c0.3-0.2,0.7-0.3,1-0.3c0.6,0,1.2,0.2,2,0.7l0.3,0.2l-0.1-0.3    c-0.3-0.7-0.8-1.2-1.3-1.6s-0.9-0.8-1.1-1.4c0.1-0.1,0.2-0.1,0.3-0.1c0.4,0,0.5,0.4,0.7,0.8c0.2,0.5,0.4,0.9,0.9,0.9    c0.1,0,0.3,0,0.4-0.1h0.1v-0.1c-0.1-0.7-0.1-1.3,0-1.9l0.3-0.3c1.7-1.5,2.7-5,1.4-6.7l-0.2,0.1c0.4,1,0.4,1.8,0.2,2.6    c0-0.1,0-0.3,0-0.4c0.1-0.7,0.1-1.5-0.7-2.1l-0.2,0.2c0.3,0.5,0.4,1.1,0.4,1.7c0,0.3,0.1,0.6,0.1,0.9c-1.2,1.1-1.9,2.4-2.1,3.9    c-0.4-1-0.1-1.9,0.2-2.9l0.3-1l-0.3,0.3c-0.7,0.8-0.9,1.5-1,2.4c0,0.2,0,0.3-0.1,0.5c-0.3-0.8-0.2-1.6-0.2-2.4    c0.1-1.3,0.2-2.7-1.5-3.6l-0.1,0.2c1.4,1,1.1,2.3,0.8,3.5c-0.1,0.3-0.2,0.7-0.2,1c-0.9-2.8-2.6-5.7-7.3-5.7c0-0.1,0-0.1,0-0.2    c0-0.5,0-0.9,0.2-1.3c0.8,1.3,2,2,3.6,2c0.4,0,0.9,0,1.5-0.1c0.3-0.1,0.7-0.1,1.1-0.1c0.6,0,1.2,0.1,1.9,0.1    c0.6,0.1,1.3,0.2,2,0.2c0.3,0,0.6,0,0.9-0.1c1.2-0.2,1.6-0.5,1.8-1c1.6,2.4,0.6,4.1-0.5,5.9c-0.6,1-1.2,2-1.4,3.2l0.2,0.1l0.5-0.9    l0.1,0.3l0.1-0.1c0.3-0.3,0.6-0.6,1-0.9c0.7-0.7,1.5-1.3,2.2-2.1c0.4-0.4,0.6-1.1,0.5-1.8c-0.1-1-0.6-2-1.3-2.5l-0.2,0.2    c0.7,1.4,0.9,2.5,0.6,3.4c-0.3,0.7-0.9,1.3-1.9,1.7c1.7-2.5,1.8-4.4,0.2-6.6l-0.1,0.1c0.1-0.2,0.1-0.4,0.1-0.6v-0.2    c0-0.1,0.1-0.3,0.1-0.4v-0.1c0.4,1,1.1,1.8,1.8,2.5c1.4,1.5,2.7,3,1.2,5.6l0.2,0.2c0.2-0.2,0.4-0.4,0.7-0.6c1-0.9,2.1-1.7,1.7-3.3    c-0.5-1.9,0.1-3.2,2-4c0.3-0.1,0.6-0.2,0.9-0.3c0.8-0.2,1.6-0.5,2.1-1.3c0.7,1.3,1.4,1.8,2.2,1.8c0.4,0,0.9-0.2,1.4-0.6l-0.1-0.2    c-0.3,0.2-0.6,0.2-0.9,0.2c-0.8,0-1.2-0.6-1.6-1.3c-0.4-0.7-0.9-1.4-1.8-1.4h-0.2l0.1,0.2c0.2,0.3,0.2,0.6,0.1,0.9    s-0.4,0.6-0.7,0.6c-0.3,0.1-0.5,0.2-0.8,0.4c-0.4,0.2-0.8,0.4-1.3,0.4c-0.4,0-0.7-0.2-1.1-0.6l-0.1-0.1h-0.1    c-0.3,0.1-0.4,0.3-0.4,0.4c-0.1,0.2,0.1,0.4,0.3,0.6c0.1,0.1,0.1,0.2,0.2,0.2l-1.1,0.9c0,0,0-0.1-0.1-0.1    c-0.1-0.2-0.3-0.5-0.7-0.5h-0.2l0.1,0.2c0.7,1.5,0.9,3,0.8,4.7c-0.1-0.2-0.1-0.5-0.2-0.7c-0.4-1.7-0.8-3.4-2.2-4.6l-0.2,0.1    c0.1,0.3,0.3,0.5,0.4,0.7c0.3,0.4,0.5,0.8,0.6,1.3c-1.2-0.7-1.9-1.5-1.8-2.8l0.2-0.4l1.6,0.7l0.1-0.2c-2.9-2.7-3.7-5.5-2.5-8.8    c-0.1,0.7-0.1,1.3-0.1,1.8c-0.1,0.5-0.1,1,0,1.5c0,2.5,0.6,3.3,1.9,4.2l0.4,0.2l-0.2-0.4c-0.2-0.3-0.4-0.6-0.6-0.9    c-0.3-0.4-0.7-0.8-0.7-1.3c0.1,0.1,0.1,0.2,0.2,0.4c0.4,0.7,0.8,1.4,1.7,1.8l0.3,0.1l-0.1-0.3c-0.2-0.4-0.5-0.7-0.8-1    s-0.6-0.5-0.6-0.9l0,0c0.2,0.1,0.3,0.3,0.5,0.4s0.4,0.3,0.6,0.4l0.2,0.2l0.1-0.2c-1.5-1.1-2.1-2.6-2.1-4.8l-0.2-0.1    c-0.6,1.1-0.4,2-0.3,2.9c-0.1-0.2-0.1-0.5-0.2-0.7c0-0.4,0-0.9,0-1.4c0.1-0.5,0.2-1,0.4-1.5c0.1-0.5,0.3-1,0.4-1.4v-0.1h0.1    l0.9-2.1c0,0,0,0.1,0,0.2s0,0.4,0.4,0.4h0.1h0.1V66c-0.1-0.6-0.2-1.2,0.2-1.7l-0.2-0.2l-0.1,0.1c-0.9,0.8-1.7,1.6-1.7,3.4l0,0    l-0.4,0.3l0,0l0.1-1l-0.2-0.1l-0.3,0.8c-0.2,0.3-0.2,0.5-0.3,0.8c-1.1,2.7-0.8,5.5,0.9,8.4c-0.4-0.3-0.6-0.7-0.8-1.2    c0-0.1-0.1-0.2-0.1-0.4c-1-2.3-0.6-4.8-0.2-7.2v-0.1l-0.2-0.1c-0.9,2.3-1.1,4.7-0.3,7.1c-1-2-0.6-4.1-0.3-6.3    c0.1-0.3,0.1-0.7,0.2-1l-0.2-0.1l-0.8,2.6c-0.1-0.4,0.1-0.8,0.3-1.3c0.2-0.4,0.4-0.9,0.3-1.4v-0.2l-0.5,0.4v-0.1l-0.2,0.2    c-0.1-0.1-0.1-0.1-0.2-0.1s-0.1,0-0.2,0V67l-0.6,0.5c0-0.1,0-0.1-0.1-0.1c0,0-0.1-0.1-0.2-0.1c0,0-0.1,0-0.2,0    c-0.7,0.2-0.8,0.4-1.1,0.7c-0.1,0.2-0.3,0.3-0.6,0.5l-0.1,0.2c0,0.1-0.1,0.4-0.1,0.4c-0.1,0.1-0.1,0.2-0.1,0.3l0,0    c0-0.1,0-0.2-0.1-0.3l0,0l0,0l0.1-0.9l0.1-0.5V66l-1.7,1.1c0.1-0.3,0.4-0.5,0.8-0.7c0.3-0.2,0.7-0.4,0.9-0.7l0.2-0.3l-0.3,0.1    c-0.9,0.2-1.5,0.6-2,1.2c-1.5,1.6-2.2,3.5-2.9,5.5l0,0V71l-0.2,0.4c-1.1,1.9-1.2,5.9-0.1,7l0.3,0.3v-0.4c0-0.3-0.1-0.6-0.1-1    c-0.2-1.2-0.3-2.4-0.1-3.6c-0.1,1.9,0,3.7,1.1,5.4l0.2-0.1l-0.6-2.4c0.2,0,0.2,0.2,0.2,0.4c0,0.3,0,0.6,0.4,0.7h0.2    c0,0-0.1-1.5-0.1-1.7c0.1,0.7,0.3,1.4,0.7,2.1l0.2-0.1c-0.3-1.2-0.3-2.5-0.3-3.8c0-0.5,0-1,0-1.4v-0.1c0-0.8,0-1.6,0.4-2.4    c-0.5,2.5-0.4,5.1,0.3,7.9h0.2l-0.2-1.8l0.4,1.9h0.2c0-0.7,0-1.5-0.1-2.2c-0.1-1.1-0.2-2.2,0-3.3c-0.2,2,0.1,3.9,0.8,5.6l0.1,0.2    l0.1-0.2c0.4-0.5,0.2-0.9,0-1.3c-0.1-0.1-0.1-0.3-0.2-0.4l0,0l0,0c0.2,0.2,0.2,0.5,0.3,0.8c0.1,0.4,0.2,0.9,0.7,1.1l0,0v0.1    c0,0.1,0,0.1,0,0.2l0,0c0,0,0,0-0.1,0h-0.1c-0.2,0-0.3,0-0.5-0.1c-0.5-0.1-0.9-0.1-1.4-0.1c-0.4,0-0.7,0-0.9,0.1    c-0.5,0.1-0.9,0.2-1.3,0.2c-1.2,0-2.1-0.6-2.8-1.8c-0.2-0.3-0.4-0.6-0.8-0.6c-0.1,0-0.1,0-0.2,0c-0.8,0.2-0.7,0.9-0.6,1.1    c0.2,1-0.3,1.8-0.8,2.7c-0.3,0.6-0.7,1.2-0.8,1.9c-0.2-0.1-0.3-0.3-0.4-0.4c-0.3-0.3-0.7-0.7-1.4-0.8H327l0.3,0.3    c0.3,0.2,0.6,0.5,0.8,0.7c0.5,0.5,0.9,0.9,1.3,0.9c0.7,0,0.9-1.3,1-1.6c0.9-0.5,1.1-1.2,1.2-1.9c4,1.3,6.1,3.6,6.6,7.2    c-0.5-0.7-0.9-1.5-1.4-2.3c-1.1-2-2-3.9-4.7-3.9h-0.2v0.2c0.2,0.8,0.5,0.8,2,1.3l0.3,0.1c0.8,0.3,1.1,1,1.4,1.8    c0.1,0.2,0.2,0.5,0.3,0.7c0.4,0.9,0.9,1.6,1.8,2.4c-1.7-0.5-2.3-1.7-2.9-2.9c-0.4-0.7-0.7-1.4-1.3-1.9l-0.2,0.2    c0.4,0.6,0.7,1.4,0.9,2.1c0.3,0.9,0.5,1.7,1.1,2.5c-0.5-0.4-0.8-0.9-1.1-1.5c-0.1-0.2-0.2-0.3-0.3-0.5c-0.7-1.1-1.6-2-2.9-2.9    l-0.2,0.2c0.3,0.4,0.7,0.8,1,1.2c0.8,0.9,1.5,1.8,1.8,3l-1.2-1.5l-0.2,0.1c0.2,0.3,0.4,0.7,0.5,1.1c0.3,0.7,0.6,1.3,1.2,1.8    c0.5,0.4,1,0.6,1.8,0.6c0.3,0,0.7,0,1-0.1c0.3,0,0.6-0.1,0.8-0.1c0.1,0,0.2,0,0.3-0.1c0.1,0,0.2,0,0.2,0c0.1,0,0.2,0,0.2,0.2    c0,0.1,0.1,0.2,0,0.3c-0.1,0.1-0.3,0.2-0.4,0.2c-0.7,0.2-1.3,0.4-1.9,0.6l-0.6,0.2c0-0.2-0.1-0.3-0.1-0.4    c-0.2-0.2-0.5-0.3-0.6-0.3s-0.2,0-0.3,0.1c-0.2,0.1-0.5,0.2-0.8,0.3c-0.5,0.1-1.1,0.3-1.3,1c0,0,0-0.1,0-0.2    c0.1-0.2,0.1-0.4-0.1-0.6H332h-0.1c-0.4,0.2-0.7,0.6-1,1c-0.5,0.6-1,1.2-1.9,1.2c-0.2-0.4-0.4-0.6-0.8-0.6c-0.2,0-0.5,0.1-0.7,0.2    s-0.4,0.1-0.5,0.2c0-0.3,0-0.5-0.1-0.7c-0.1-0.1-0.2-0.2-0.4-0.2c-0.2,0-0.4,0.1-0.7,0.2l-0.2,0.1l0.2,0.1    c0.2,0.2,0.3,0.3,0.3,0.4c0,0.2-0.3,0.4-0.5,0.6L324.8,93z M318.4,91.2l0.2,0.5l3.3-1.4l-0.2-0.5L318.4,91.2z M311.2,89.3    c0.1,0.1,0.2,0.3,0.3,0.4c0.3,0.6,0.7,1.2,1.7,1.4l0.4,0.1l-2.2-2.1L311.2,89.3z M325.8,90.3c-0.3,0-0.6,0.2-1,0.5l-0.2,0.2h0.2    c0.3,0,0.5,0.1,0.7,0.1c0.4,0,0.7-0.1,0.9-0.4l0.1-0.1l-0.1-0.1C326.2,90.4,326,90.3,325.8,90.3z M313,89.9L313,89.9    c0.4,0.7,1.1,1.1,2,1.1c0.1,0,0.2,0,0.3,0h0.5L313,89.9l-0.9-1.6c0.1,0.1,0.3,0.3,0.4,0.4c0.3,0.3,0.6,0.6,1,0.9    c0.9,0.6,1.3,0.8,1.8,0.8c0.2,0,0.5,0,0.8-0.1h0.3l-0.2-0.2c-0.4-0.3-0.8-0.5-1.3-0.7c-0.6-0.3-1.3-0.6-1.8-1.2l1.5,0.8l0.2-0.2    c-0.3-0.4-0.7-0.9-1-1.3c0-0.1-0.1-0.1-0.1-0.1l0.1,0.1c0.3,0.3,0.7,0.6,0.9,0.7l0.1-0.2c-0.2-0.3-0.6-0.7-0.9-1.2    c-0.2-0.2-0.3-0.4-0.5-0.6c0.3,0.2,0.6,0.5,0.7,0.6s0.2,0.1,0.2,0.1h0.1v-0.1c0.3-1.1,0.1-2-0.6-2.8l0.4,0.2l0.2-0.2    c-0.5-0.7-1.1-1.2-1.7-1.6c-0.3-0.2-0.7-0.5-1-0.7l-0.5-0.3l-0.2,0.2c0.5,0.8,0.7,1.2,0.8,1.4c-0.2-0.1-0.4-0.4-0.6-0.6    c-0.6-0.6-0.8-0.8-1-0.8H310l0.1,0.2c0.5,0.7,0.7,1,0.8,1.2c-0.1-0.1-0.3-0.2-0.4-0.3c-0.5-0.4-0.8-0.6-1-0.6h-0.1l-0.1,0.1v0.1    l0.1,0.1c0.1,0.2,0.3,0.3,0.5,0.5c0.7,0.7,1.4,1.3,0.8,2.6c-0.3,0.7-0.3,1.6,0.1,2.5C311.3,88.8,312.1,89.6,313,89.9L313,89.9z     M325.1,89.6c-0.6,0-1,0.2-1.5,0.5c-0.2,0.1-0.3,0.2-0.5,0.3l0.1,0.2l3.4-0.5l-0.3-0.2C325.8,89.7,325.5,89.6,325.1,89.6z     M317.7,89.9l2.8-0.2l-0.1-0.4h-2.8L317.7,89.9z M366.2,89.4l0.4,0.2c0.3,0.1,0.6,0.2,0.8,0.2c0.5,0,1-0.2,1.5-0.6l-0.1-0.2    L366.2,89.4z M377.6,87.5c-1.9,0.1-3.3,0.6-4.9,1.1c-0.5,0.2-1,0.3-1.5,0.5v0.2c0.5,0.1,1,0.1,1.4,0.1c1.9,0,3.5-0.8,5-1.7V87.5z     M325.2,82.4c1.3,0.8,2.3,1.9,3.3,3c1.3,1.4,2.7,2.9,4.6,3.7l0.1-0.2c-1.4-0.7-2.5-2-3.6-3.2c-1.2-1.4-2.5-2.8-4.3-3.5L325.2,82.4    z M327,87.9c-0.1,0-0.3,0-0.5,0.1l-0.5,0.1l1.4,1.1V89c0-0.4,0-0.7-0.1-0.8C327.3,87.9,327.2,87.9,327,87.9z M361.5,84.8    c-0.4,0.4-0.8,0.9-1.2,1.4c-0.6,0.9-1.3,1.7-2.3,2.2l0.1,0.2c1.6-0.3,2.3-1.6,3-2.8c0.2-0.3,0.4-0.6,0.6-0.9L361.5,84.8z     M320.4,88c-0.8,0-1.4,0.1-2.1,0.4v0.2h5v-0.2C322.3,88.2,321.3,88,320.4,88z M379.6,81.9c-2.2,2.8-3,3.4-5.3,3.9    c-0.3,0.1-0.7,0.1-1,0.2c-1.3,0.2-2.6,0.4-3.4,1.9l-0.1,0.1l0.1,0.1c0.2,0.1,0.6,0.2,1,0.2c2.3,0,7.2-1.9,7.8-3.3l0.2-0.4    l-0.3,0.2c-2.4,1.5-3.9,2.1-5,2.1l0,0c-0.2,0-0.4,0-0.6-0.1c4.3-1,5.8-2.1,6.8-4.8L379.6,81.9z M326.4,86.8l1.8,1.4l0.4-0.5    l-1.8-1.4L326.4,86.8z M320.3,86.8c1.4,0,2.6,0.2,3.7,1.1l0.2-0.2c-1.2-1.4-2.6-1.5-3.8-1.5c-0.2,0-0.4,0-0.7,0v-0.1    c-0.5-1.6-1.6-2.1-2.8-2.6c-0.4-0.2-0.8-0.4-1.3-0.6l-0.2,0.2c1.1,1.4,2.2,2.1,3.5,2.8l0.5,0.3c-0.1,0-0.3,0-0.4,0    c-0.4,0-0.9,0.1-1.3,0.1c-0.8,0-1.4-0.1-2-0.3l-0.1,0.2c1,0.6,2.1,0.6,3.1,0.6c0.3,0,0.5,0,0.8,0    C319.8,86.8,320.1,86.8,320.3,86.8z M326.3,85.8l2.6,1.9l0.2-0.2c-0.6-1-1.5-1.7-2.6-2L326.3,85.8z M318.5,87.7h2.4v-0.4h-2.4    V87.7z M321.6,83.8c-0.3,0-0.7,0.1-1.1,0.2v0.2c1.2,0.1,1.9,0.8,2.7,1.5c0.5,0.5,1,1,1.7,1.3l0.3,0.2l-0.2-0.3    C324.3,85.4,323.4,83.8,321.6,83.8z M363.8,85.3c-0.9,0-1.4,0.6-1.7,1l-0.2,0.3l0.4-0.2c0.1-0.1,0.3-0.1,0.4-0.1    c0.5-0.1,1-0.2,1.3-0.9l0.1-0.2L363.8,85.3z M324.6,84.3L324.6,84.3c0.1,0.6,0.3,1.3,1.4,1.6l0.4,0.1l-1.6-1.8L324.6,84.3z     M331.2,85.5l0.1-0.3c0.3-1.2-0.6-1.5-1.3-1.8l-0.4-0.1L331.2,85.5z M370.1,82.6c-0.3,0.2-0.5,0.5-0.8,0.8    c-0.6,0.7-1.2,1.3-2.2,1.3v0.2c0.1,0,0.2,0,0.3,0c1.5,0,2.2-1.1,2.9-2.2L370.1,82.6z M365.2,81.6c-0.4,0.1-0.7,0.3-1.1,0.4    c-1.5,0.5-2.9,1-3.4,2.9l0.2,0.1c0.4-1,1.2-1.3,2.1-1.6c0.8-0.3,1.7-0.6,2.3-1.5l0.2-0.3H365.2z M356.6,80.8    c-0.2,0.5-0.4,1-0.6,1.5c-0.3,0.9-0.6,1.8-1.3,2.4l0.1,0.2c1.5-1,1.8-2.6,2-4L356.6,80.8z M366.9,82.3c-1,0.3-1.6,0.5-2,1.4    l-0.1,0.4l2.4-1.6l-0.1-0.2L366.9,82.3z M313.1,79.6c1.7,2.5,3.9,3.9,6.7,4.1v-0.2c-2.6-0.5-4.4-2-6.6-4L313.1,79.6z M308.2,72.3    c-0.2,0-0.5,0-0.7,0.1l-0.4,0.1l0.4,0.1c3,1.1,3.1,1.2,2.9,4.2c-0.2,3.3,2,6.1,5.4,6.8l0.4,0.1l-0.4-0.4c-0.2-0.2-0.4-0.4-0.6-0.5    s-0.4-0.2-0.6-0.4c-1.1-0.6-2.1-1.2-2.8-2.3c-0.7-1.2-0.6-2.4-0.5-3.6l0.1-0.6c0.1-1-0.2-2-0.9-2.7    C309.7,72.6,308.9,72.3,308.2,72.3z M373.6,76c-0.9,0-1.6,0.3-2.1,0.8c-0.7,0.8-1.3,1.7-1.8,2.6c-0.7,1.2-1.5,2.5-2.7,3.4    l-0.1,0.1L367,83c0.2,0.2,0.4,0.3,0.6,0.3c0.3,0,0.5-0.2,0.7-0.4l0.1-0.1c1-0.9,1.8-1.9,2.5-3.3c0.6-1.1,1.8-1.9,3-1.9    c0.1,0,0.1,0,0.2,0h0.5c0.4,0,0.8,0.1,1.2,0.1c0.4,0,0.7,0,1.1-0.1h0.2l-0.2-0.2C376.2,76.5,374.9,76,373.6,76z M319.1,81.2    l0.5,0.2c1.6,0.6,2.9,1,4,1.8l0.2-0.2c-1.1-1-2.4-2-4.6-2.1L319.1,81.2z M336.1,80.8c0.6,0.7,1,1.5,1.1,2.4h0.2    c0.2-1.1-0.4-1.8-1-2.4l-0.2-0.2L336.1,80.8z M315.1,77.1c-0.4,1.6-0.2,3,0.6,3.9c0.9,1.2,2.8,1.9,5.3,1.9v-0.2    c-3.2-0.3-5.1-2.1-5.7-5.6L315.1,77.1z M357.3,82.2l0.5,0.2l0.8-1.9l-0.5-0.2L357.3,82.2z M368.5,78.7c0.1,0.7-0.4,1-0.9,1.4    s-1.2,0.9-1.4,1.8l-0.1,0.2l0.2-0.1c2.4-0.9,3.6-3.6,3.3-5.1v-0.3l-2.4,2.9l0.4,0.3L368.5,78.7z M362.9,80.2c-1,0.1-2,0.1-2.7,1.2    l-0.2,0.3l3.2-1.3l-0.1-0.2H362.9z M316.2,76.1c1.2,3.2,3.4,5.1,6,5.1c0.4,0,0.7,0,1.1-0.1l0.4-0.1l-0.4-0.2    c-0.3-0.1-0.4-0.3-0.5-0.4c-0.1-0.2,0-0.5,0.2-0.9l-0.2-0.2c-0.8,0.6-1.6,0.9-2.3,0.9c-0.9,0-1.8-0.5-2.6-1.4    c-0.3-0.4-0.4-0.7-0.4-1c0.1-0.5,0.7-0.9,1.2-1.2l0.5-0.4l-0.3-0.1c-0.2,0-0.3,0-0.5,0s-0.5,0-0.7,0.1c-0.2,0-0.4,0.1-0.7,0.1l0,0    C316.6,76.3,316.4,76.2,316.2,76.1l-0.2-0.2c1.1,0,1.9-0.3,3.2-1.1l-0.1-0.2l-3.3,1v0.2l0,0L316.2,76.1z M325.1,79.4    c0.5,0.9,1,1.2,2,1.7l0.1-0.2l-1.9-1.7L325.1,79.4z M322.9,77.5c0.5,0.9,1,1.2,1.9,1.8l0.1-0.2l-1.9-1.7L322.9,77.5z M361.7,75.5    c0,0.3,0,0.5-0.1,0.8c-0.1,0.6-0.1,1.3-0.3,1.9c-0.1,0.4,0,0.6,0.2,0.8c0.1,0.1,0.2,0.1,0.3,0.1c0.2,0,0.3-0.1,0.3-0.3    c0-0.1,0.1-0.1,0.1-0.1c1.1-0.7,0.5-1.5,0.1-2.1c-0.2-0.4-0.5-0.7-0.5-1.1L361.7,75.5z M308.5,73.3c0.8,0.7,0.8,1.6,0.8,2.6    c0,0.9,0,1.9,0.6,2.9l0.2-0.1c-0.3-0.8-0.2-1.6-0.1-2.4c0.1-1.3,0.2-2.5-1.3-3.3L308.5,73.3z M319.2,78.6l0.4,0.1    c0.1,0,0.2,0,0.3,0c0.7,0,1.2-0.3,1.7-1l-0.2-0.2L319.2,78.6z M327.7,76.3c-0.2,0-0.4,0.1-0.6,0.2c-0.2,0.2-0.2,0.6-0.2,1.1v0.2    l1.6-1.3l-0.2-0.1C328.1,76.3,327.9,76.3,327.7,76.3z M321.4,74.8c0.3,1,0.6,1.4,1.4,2.2l0.2-0.2l-1.4-2.1L321.4,74.8z     M323.3,76.5l0.4,0.1c0.2,0,0.3,0.1,0.4,0.1c0.5,0,0.8-0.3,1.2-0.7l-0.1-0.2L323.3,76.5z M360.1,76.4l0.1,0.1l0.2,0.1v-0.3v-0.1    l0,0c0,0,0,0,0.1,0c0.1-0.1,0.3-0.3,0.1-0.5l-0.8-0.1h-0.7v0.1c0,0.2,0,0.4,0.1,0.5s0.3,0.1,0.4,0.1s0.2,0,0.2,0    C359.9,76.3,360,76.3,360.1,76.4C360.1,76.3,360.1,76.3,360.1,76.4L360.1,76.4z M351.4,75.7c0.2,0,0.3,0.1,0.5,0.2    c0.2,0.2,0.5,0.3,0.9,0.3c0.1,0,0.1,0,0.2,0h0.3L353,76c-0.5-0.4-0.9-0.6-1.3-0.6c-0.2,0-0.3,0-0.5,0.1L351.4,75.7L351.4,75.7z     M353.5,74.5c0.8,0.2,1.4,0.6,2.1,1.4l0.2-0.1l-0.2-0.9l0,0c0.1,0.1,0.2,0.2,0.4,0.2c0.1,0,0.2,0,0.4-0.1l0.1-0.1l-0.1-0.1    c-0.4-0.6-0.8-1-1.8-1h-0.3l0.8,0.7l-1.5-0.3L353.5,74.5z M365.6,75.6c0,0,0,0.1,0.1,0.1l0.2,0.1v-0.3l0,0    c0.1-0.1,0.3-0.3,0.2-0.5l-0.7-0.1h-0.5V75c0,0.2,0,0.3,0.1,0.4s0.2,0.1,0.3,0.1c0.1,0,0.1,0,0.2,0    C365.4,75.6,365.5,75.6,365.6,75.6L365.6,75.6z M316.2,75v0.2h0.1c1.1,0,1.9-0.3,3.2-1.1l-0.1-0.2L316.2,75z M319.5,73    c0.3,1,0.7,1.4,1.6,2.1l0.2-0.2l-1.5-2.1L319.5,73z M328.8,75l0.2-0.1c0.5-0.2,0.8-0.5,0.8-0.8s-0.2-0.6-0.6-1L329,73L328.8,75z     M316,74.7c0.1,0,0.2,0,0.3,0c0.8,0,1.6-0.3,2.4-0.9l0.2-0.2l-0.3-0.1c-0.1,0-0.2,0-0.3,0c-0.5,0-0.9,0.3-1.3,0.5    c-0.3,0.2-0.7,0.4-1,0.4l0,0L316,74.7z M368.4,74.6h2.2v-0.3l-0.1-0.2h-2.1V74.6z M358.7,74l0.2,0.2c0.3,0.3,0.6,0.4,0.9,0.4    c0.4,0,0.6-0.2,0.9-0.6l0.1-0.2L358.7,74z M355.5,73.1c-0.4,0-0.7,0.1-1.1,0.3l-0.4,0.2l3.4,0.4l0.1-0.2    C356.6,73.4,356.1,73.1,355.5,73.1z M325.9,73.9l0.5,0.1c0.1,0,0.2,0,0.3,0c0.5,0,0.7-0.2,1.2-0.6l-0.1-0.2L325.9,73.9z     M316.1,73.9c0.1,0,0.2,0,0.3,0c0.8,0,1.6-0.3,2.4-0.9l0.2-0.2l-0.3-0.1c-0.1,0-0.2,0-0.3,0c-0.5,0-0.9,0.3-1.3,0.5    c-0.3,0.2-0.7,0.4-1,0.4l0,0L316.1,73.9z M321.8,73.4l0.5,0.1c0.1,0,0.2,0,0.3,0c0.5,0,0.7-0.2,1.2-0.6l-0.1-0.2L321.8,73.4z     M355.2,72.6l0.2,0.2c0.3,0.3,0.6,0.4,0.9,0.4c0.4,0,0.6-0.2,0.9-0.6l0.1-0.2L355.2,72.6z M315.5,72.8c0.3,0.1,0.7,0.2,1.1,0.2    c0.5,0,1.1-0.1,1.8-0.4l0.3-0.1l-0.3-0.1c-0.2-0.1-0.4-0.2-0.7-0.2c-0.4,0-0.7,0.1-1,0.2s-0.6,0.2-0.9,0.2l0,0c-0.1,0-0.2,0-0.3,0    V72.8z M350.5,70.8c0.6,0,2.1,1.4,2.6,1.9l0.2,0.2l0.1-0.2c0-0.1,0.1-1-2.1-2.1c-1.7-0.9-2.5-2-2.8-2.4l-0.1-0.2l-0.4,0    c0,0,0,0.1,0.1,0.2C348.7,69.2,349.7,70.8,350.5,70.8L350.5,70.8z M360.9,71.3c-0.3,0-0.6,0.1-1,0.4l-0.3,0.2l2.7,0.3l0.1-0.2    C361.8,71.6,361.4,71.3,360.9,71.3z M314.8,71.7c0.5,0.3,1,0.4,1.6,0.4c0.4,0,0.8-0.1,1.2-0.2l0.3-0.1l-0.2-0.2    c-0.3-0.2-0.6-0.3-1-0.3c-0.2,0-0.5,0-0.7,0.1c-0.2,0-0.4,0.1-0.6,0.1s-0.4,0-0.5-0.1L314.8,71.7z M327.8,70.5l1.5,1.4v-0.3    c0-0.2,0-0.3-0.1-0.5c-0.1-0.4-0.1-0.6,0.2-0.8l-0.1-0.2L327.8,70.5z M320.4,71.7l0.4,0.1c0.3,0.1,0.5,0.1,0.7,0.1    c0.7,0,1.2-0.4,1.9-1.2l-0.1-0.2L320.4,71.7z M355.9,71.6v0.3c1.9-0.3,3.4-0.9,5.2-3.4l-0.2-0.2L355.9,71.6z M324.7,71.6v0.2    c0.1,0,0.1,0,0.2,0c0.4,0,0.7-0.2,1.1-0.5l-0.1-0.2L324.7,71.6z M366.1,71.1c-0.3,0-0.5,0-0.8,0c-1.1,0-1.5,0-1.6,0.2l0,0v0.1    c0,0.2,0.2,0.3,1.5,0.3c0.3,0,0.6,0,1,0h0.1v-0.6H366.1z M314.2,70.8c0.7,0.3,1.3,0.5,2,0.5c0.4,0,0.8-0.1,1.2-0.2v-0.2l-3.1-0.3    L314.2,70.8z M365,69.5c-0.2,0-0.3,0.2-0.4,0.3l-0.1,0.1l1.3,0.4l-0.2-0.3C365.4,69.8,365.2,69.5,365,69.5z M314.1,69.8    c0.9,0.3,1.6,0.5,2.3,0.5c0.4,0,0.9-0.1,1.4-0.2v-0.2l-3.6-0.3L314.1,69.8z M318.5,69.9l0.1,0.1c0.2,0.2,0.3,0.3,0.4,0.3    c0.3,0,0.4-0.3,0.5-0.8l0.1-0.3L318.5,69.9z M320.6,69.9v0.2c0.1,0,0.1,0,0.2,0c0.4,0,0.7-0.2,1.1-0.5l-0.1-0.2L320.6,69.9z     M362,69.7c-0.2,0-0.4,0-0.6,0.1V70l1.5,0.1v-0.2C362.5,69.8,362.3,69.7,362,69.7z M368.4,69.5c-0.2,0-0.4,0.1-0.6,0.2l-0.4,0.2    l1.9,0.2l0.1-0.2C368.9,69.6,368.7,69.5,368.4,69.5z M327.5,69.1c0.3,0.5,0.7,0.7,1.1,0.7c0.2,0,0.5-0.1,0.8-0.2l0.3-0.1l-2.5-0.6    L327.5,69.1z M322.8,69.4l0.4,0.1c0.2,0,0.3,0.1,0.4,0.1c0.5,0,0.8-0.3,1.2-0.7l-0.1-0.2L322.8,69.4z M357,69v0.2    c0.1,0,0.3,0,0.4,0c1.4,0,2.5-0.5,3.7-1.8l-0.1-0.2L357,69z M365.3,68.5c-0.2,0-0.4,0-0.6,0.1v0.2l1.5,0.1v-0.2    C365.8,68.6,365.6,68.5,365.3,68.5z M326.6,68.1c0.2,0.1,0.3,0.2,0.5,0.2c0.3,0.2,0.7,0.4,1.1,0.4c0.3,0,0.6-0.1,0.9-0.3l0.2-0.2    l-2.6-0.3L326.6,68.1z M362.7,68.2c-0.2,0-0.4,0-0.6,0.1v0.2l1.5,0.1v-0.2C363.3,68.3,363,68.2,362.7,68.2z M321.3,68.3v0.3    c0.1,0,0.1,0,0.2,0c0.5,0,0.8-0.2,1.3-0.6l-0.1-0.2L321.3,68.3z M318.3,68.1v0.3c0.1,0,0.1,0,0.2,0c0.5,0,0.8-0.2,1.3-0.6    l-0.1-0.2L318.3,68.1z M368.1,67.6c-0.2,0-0.4,0-0.6,0.1v0.2l1.3,0.1v-0.2C368.6,67.7,368.3,67.6,368.1,67.6z M356.8,67.7v0.2h0.1    c1.6,0,2.5-0.8,3.6-1.7c0.4-0.3,0.8-0.7,1.2-1l-0.1-0.2c-0.6,0.3-1.2,0.5-1.8,0.6c-1.2,0.4-2.1,0.7-3.1,1.6l0.1,0.2l2.3-0.8l0,0    L356.8,67.7z M325.9,66.8c0.5,0.7,1.1,1,1.8,1c0.2,0,0.4,0,0.6-0.1v-0.2l-0.4-0.1c-0.7-0.2-1.3-0.3-1.9-0.8L325.9,66.8z     M324.2,67.4v0.2c0.1,0,0.1,0,0.2,0c0.5,0,0.8-0.2,1.3-0.6l-0.1-0.2L324.2,67.4z M366,67c-0.1,0-0.1,0-0.2,0v0.2l1.4,0.5l0.1-0.2    C366.7,67.1,366.5,67,366,67z M320.3,67.4l0.1,0.2c0.6-0.1,0.9-0.4,1.3-0.9l-0.2-0.2L320.3,67.4z M316.4,67v0.2c0.1,0,0.1,0,0.2,0    c0.5,0,0.8-0.2,1.3-0.6l-0.1-0.2L316.4,67z M364.1,66.7c-0.2,0-0.4,0-0.6,0.1V67l1.4,0.1l0.1-0.2    C364.7,66.8,364.4,66.7,364.1,66.7z M343.8,62.8c-1.2,1.5-2.8,3.5-3.1,3.8l0.2,0.2c0,0,0.8-0.6,1.7-1.7c0,0,0,0.1,0,0.2    s0,0.2,0.1,0.3l0.1,0.1c0,0,0.1-0.2,0.1-0.3l0.2,0.1c1-1.1,2.2-2.3,2.5-2.3l0,0c0.6,0,1.6-0.9,1.7-1c0,0,0.9-1,1-2.4    c0.1-1.3,0.7-2.3,0.7-2.3l-0.2-0.2c0,0-1,0.8-1.4,1.6c0-0.2,0.1-0.4,0.1-0.5v-0.1v-0.1l0,0h-0.1c-0.1,0-0.2,0-0.7,1.2    c0.2-0.8,0.5-1.5,0.6-1.8c0.1-0.1,0.1-0.2,0-0.2v-0.1h-0.1l-0.1,0.2c-0.5,0.9-0.9,1.7-1.2,2.4c0.3-0.6,0.6-1.3,0.9-2l-0.2-0.1    c-0.2,0.3-1,2.1-2.8,3.7l-1.9,1.8l0.2,0.2l1.1-0.8c-1.6,1.6-2.7,2.6-3,2.8l0.1,0.2c0,0,1.1-0.8,2.8-2.6l0.1,0.1l0.8-0.8    L343.8,62.8z M324.9,65.4c0.7,0.8,1.5,1.2,2.4,1.2c0.2,0,0.5,0,0.8-0.1c0.2,0,0.5-0.1,0.6-0.3c0-0.1,0-0.3-0.1-0.4v-0.2h-0.1l0,0    l-0.1,0.1c-0.3,0.2-0.5,0.2-0.8,0.2c-0.5,0-0.9-0.2-1.5-0.4c-0.3-0.1-0.6-0.2-1-0.3l-0.4-0.1L324.9,65.4z M345.7,63.3    c0,0-0.1,0-0.2,0c-0.6,0.1-2.1,2.6-2.4,3.1l0.2,0.1c1.5-1.9,2.4-2.8,2.4-2.8c0.1-0.1,0.2-0.2,0.2-0.3    C345.9,63.3,345.8,63.3,345.7,63.3z M321.9,66.1v0.2c0.1,0,0.1,0,0.2,0c0.4,0,0.7-0.2,1.1-0.5l-0.1-0.2L321.9,66.1z M370,65.8    c-0.2,0-0.4,0-0.6,0.1v0.2l1.5,0.1V66C370.6,65.9,370.3,65.8,370,65.8z M366.9,65.8c-0.2,0-0.4,0-0.6,0.1v0.2l1.5,0.1V66    C367.5,65.9,367.2,65.8,366.9,65.8z M318.8,66v0.2c0.1,0,0.1,0,0.2,0c0.5,0,0.8-0.2,1.3-0.6l-0.1-0.2L318.8,66z M312.9,65.4    l-0.1,0.2c0.4,0.2,0.7,0.3,1,0.3s0.6-0.1,1-0.4l0.3-0.2L312.9,65.4z M315.3,65.6v0.2c0.1,0,0.1,0,0.2,0c0.5,0,0.8-0.2,1.3-0.6    l-0.1-0.2L315.3,65.6z M360.4,64.1c-1.2,0-2.2,0.5-3.5,1.5l0.1,0.2l4.1-1.4v-0.2C360.9,64.1,360.7,64.1,360.4,64.1z M362,65.1    c0.7,0.2,1.3,0.3,1.7,0.3c0.4,0,0.8-0.1,1.2-0.3l-0.1-0.2l-2.8-0.1L362,65.1z M324.9,64.6l0.3,0.2c0.5,0.4,1,0.5,1.5,0.5    c0.4,0,0.8-0.1,1.2-0.3c0.2-0.1,0.4-0.2,0.4-0.4c0-0.1-0.1-0.3-0.2-0.4l-0.1-0.1l-0.1,0.1c-0.3,0.3-0.6,0.5-1.2,0.5    c-0.2,0-0.4,0-0.6,0c-0.3,0-0.5,0-0.8,0L324.9,64.6z M318.3,64.8l0.1,0.1c0.2,0.2,0.3,0.3,0.4,0.3c0.3,0,0.4-0.3,0.5-0.8l0.1-0.3    L318.3,64.8z M311.8,64.4l-0.1,0.2c0.4,0.2,0.7,0.3,1,0.3s0.6-0.1,1-0.4l0.3-0.2L311.8,64.4z M356.9,64.4v0.2h0.1    c1.6,0,2.5-0.8,3.5-1.7c0.4-0.3,0.8-0.7,1.2-1l-0.1-0.2c-0.6,0.3-1.2,0.5-1.8,0.6c-1.2,0.4-2.1,0.7-3.1,1.6l0.1,0.2l2.3-0.8l0,0    L356.9,64.4z M367.1,64.2l0.4,0.1c0.2,0.1,0.4,0.1,0.6,0.1c0.5,0,1.1-0.2,1.7-0.7l-0.1-0.2L367.1,64.2z M362.8,64    c0.7,0.2,1.3,0.3,1.7,0.3c0.4,0,0.8-0.1,1.2-0.3l-0.1-0.2l-2.8-0.1L362.8,64z M327.6,63.2c-0.3,0.3-0.8,0.4-1.4,0.5    c-0.3,0-0.5,0.1-0.8,0.2L325,64l0.4,0.1c0.4,0.1,0.7,0.2,1.1,0.2c0.6,0,1.1-0.2,1.6-0.7c0.1-0.1,0.3-0.3,0.3-0.5    c0-0.1-0.1-0.2-0.2-0.3l0.2-0.3l-0.3,0.1l0,0c0-0.1-0.1-0.3-0.3-0.3c-0.1,0-0.1,0-0.2,0.1c-0.3,0.2-0.7,0.3-1.1,0.3    c-0.5,0-1.1-0.1-1.8-0.4l-0.1,0.2c0.6,0.6,1.2,0.8,1.9,0.8C326.9,63.5,327.3,63.3,327.6,63.2z M321.1,64.1l0.4,0.1    c0.1,0,0.3,0.1,0.4,0.1c0.5,0,0.7-0.3,1.1-0.7l-0.1-0.2L321.1,64.1z M372.7,63.2c-0.1,0.2-0.4,0.2-0.6,0.2c-0.3,0-0.7,0.1-1,0.4    l-0.3,0.3l0.4-0.1c0.2-0.1,0.4-0.1,0.5-0.1c0.4-0.1,0.8-0.1,1.1-0.6L372.7,63.2z M310.9,63.5l-0.1,0.2c0.4,0.2,0.7,0.3,1,0.3    s0.6-0.1,1-0.4l0.3-0.2L310.9,63.5z M314.6,63.1c0.5,0.3,1,0.5,1.5,0.5c0.3,0,0.7-0.1,1.2-0.2v-0.2l-2.6-0.2L314.6,63.1z     M367.3,63.1l0.4,0.1c0.2,0.1,0.4,0.1,0.6,0.1c0.5,0,1.1-0.2,1.7-0.7l-0.1-0.2L367.3,63.1z M319.2,63v0.2c0.1,0,0.1,0,0.2,0    c0.5,0,0.8-0.2,1.3-0.6l-0.1-0.2L319.2,63z M362.4,62.7c0.7,0.2,1.3,0.3,1.7,0.3c0.4,0,0.8-0.1,1.2-0.3l-0.1-0.2l-2.8-0.1    L362.4,62.7z M310.1,62.5l-0.1,0.2c0.4,0.2,0.7,0.3,1,0.3s0.6-0.1,1-0.4l0.3-0.2L310.1,62.5z M324.4,61.9h0.1    c0.7,0.3,1.3,0.6,1.9,0.6s1.2-0.2,1.8-0.8l-0.1-0.2c-0.6,0.2-1.1,0.3-1.7,0.3l0,0c-0.5,0-1-0.1-1.5-0.2l-0.4-0.1L324.4,61.9z     M313.2,62.1c0.5,0.3,1,0.5,1.5,0.5c0.3,0,0.7-0.1,1.2-0.2v-0.2l-2.6-0.2L313.2,62.1z M373.6,61.5c-0.2,0.1-0.4,0.1-0.6,0.1    c-0.3,0-0.7,0-1,0.3l-0.3,0.3l0.4-0.1c0.2,0,0.4-0.1,0.6-0.1c0.4,0,0.8-0.1,1.2-0.5H373.6z M367.9,62l0.4,0.1    c0.2,0.1,0.4,0.1,0.6,0.1c0.5,0,1.1-0.2,1.7-0.7l-0.1-0.2L367.9,62z M309.5,61.6l-0.1,0.2c0.4,0.2,0.7,0.3,1,0.3s0.6-0.1,1-0.4    l0.3-0.2L309.5,61.6z M357.5,61.8V62c0.2,0,0.4,0,0.5,0c1.7,0,2.8-0.6,4-1.1c0.2-0.1,0.4-0.2,0.7-0.3l-0.1-0.2L357.5,61.8z     M320.9,61.6c0.6,0.3,1.2,0.5,1.8,0.5c0.4,0,0.7-0.1,1.1-0.3l0.4-0.2l-3.2-0.3L320.9,61.6z M324.3,61c0.7,0.6,1.4,0.8,1.9,0.8    c0.4,0,0.8-0.1,1.2-0.4l0.4-0.2h-0.5c-0.2,0-0.4,0-0.6,0c-0.5,0-1.2-0.1-2.3-0.4L324.3,61z M363.8,61.2c0.5,0.3,0.9,0.5,1.3,0.5    s0.7-0.2,1-0.5l0.1-0.1l-2.4-0.6l-0.1,0.2l0.7,0.4h-1.1L363.8,61.2z M316.7,61.3c0.5,0.3,1,0.4,1.5,0.4s1.1-0.1,1.8-0.4v-0.2h-3.2    L316.7,61.3z M311.9,61.1c0.5,0.3,1,0.5,1.5,0.5c0.3,0,0.7-0.1,1.2-0.2v-0.2L312,61L311.9,61.1z M374.5,60.3    c-0.1,0.2-0.4,0.2-0.6,0.2c-0.3,0-0.7,0.1-1,0.5l-0.3,0.3l0.4-0.1c0.2-0.1,0.4-0.1,0.5-0.1c0.4-0.1,0.8-0.2,1.1-0.6L374.5,60.3z     M324.3,60c0.5,0.7,1,1.1,1.7,1.1c0.4,0,0.8-0.2,1.3-0.5l-0.1-0.2c-0.2,0-0.5,0.1-0.7,0.1c-0.7,0-1.3-0.2-2-0.6L324.3,60z     M368.7,60.5l0.4,0.2c0.3,0.1,0.6,0.2,0.9,0.2c0.4,0,0.9-0.1,1.5-0.4l-0.1-0.2L368.7,60.5z M357.9,60.4v0.2    c0.5,0.1,0.9,0.2,1.3,0.2c0.9,0,1.6-0.3,2.2-0.6c0.2-0.1,0.4-0.1,0.5-0.2l-0.1-0.2L357.9,60.4z M320.3,60.3    c0.6,0.3,1.2,0.5,1.8,0.5c0.4,0,0.7-0.1,1.1-0.3l0.4-0.2l-3.2-0.3L320.3,60.3z M310.7,60.2c0.5,0.3,1,0.5,1.5,0.5    c0.3,0,0.7-0.1,1.2-0.2v-0.2l-2.6-0.2L310.7,60.2z M315.2,60c0.5,0.3,1,0.4,1.5,0.4s1.1-0.1,1.8-0.4v-0.2h-3.2L315.2,60z     M364.2,59.9c0.7,0.2,1.3,0.3,1.7,0.3c0.4,0,0.8-0.1,1.2-0.3l-0.1-0.2l-2.8-0.1L364.2,59.9z M324.6,59.5c0.4,0.3,0.8,0.4,1.3,0.4    c0.3,0,0.6-0.1,1-0.2v-0.2l-2.7-0.3L324.6,59.5z M370.1,59.4l0.4,0.2c0.3,0.1,0.6,0.2,0.9,0.2c0.4,0,0.9-0.1,1.5-0.4l-0.1-0.2    L370.1,59.4z M309.6,59.2c0.8,0.4,1.4,0.6,2.2,0.6c0.4,0,0.9-0.1,1.6-0.2v-0.2l-3.6-0.4L309.6,59.2z M318.9,59.1    c1,0.4,1.8,0.7,2.8,0.7c0.5,0,1-0.1,1.5-0.3v-0.2l-4.2-0.4L318.9,59.1z M358.8,59.1v0.2c0.5,0.2,0.9,0.3,1.4,0.3    c0.6,0,1.1-0.2,1.6-0.3c0.2,0,0.3-0.1,0.5-0.1V59L358.8,59.1z M376.1,58.5c-0.1,0.2-0.4,0.2-0.6,0.2c-0.3,0-0.7,0.1-1,0.5    l-0.3,0.3l0.4-0.1c0.2-0.1,0.4-0.1,0.5-0.1c0.4-0.1,0.8-0.2,1.1-0.6L376.1,58.5z M314.3,59c0.4,0.2,0.8,0.3,1.3,0.3    c0.4,0,0.9-0.1,1.5-0.3v-0.2h-2.6L314.3,59z M364.9,58.8c1.1,0.3,1.9,0.4,2.5,0.4c0.7,0,1.3-0.1,1.9-0.4l-0.1-0.2h-4.3V58.8z     M324,58.9c0.3,0.1,0.6,0.2,0.9,0.2s0.7-0.1,1.1-0.2l0.2-0.1l-0.2-0.1c-0.2-0.2-0.5-0.3-0.7-0.3s-0.5,0.1-0.7,0.1    c-0.2,0.1-0.4,0.1-0.6,0.1l0,0L324,58.9z M308.4,58.3c0.5,0.3,1,0.5,1.5,0.5c0.3,0,0.7-0.1,1.2-0.2v-0.2l-2.6-0.2L308.4,58.3z     M313.1,58.3c0.5,0.3,1,0.4,1.5,0.4s1.1-0.1,1.8-0.4v-0.2h-3.2L313.1,58.3z M360.1,58.1v0.2c0.4,0.2,0.8,0.3,1.2,0.3    c0.5,0,0.9-0.1,1.4-0.3c0.1,0,0.3-0.1,0.4-0.1v-0.1c0,0,0,0,0.1,0c0.4,0,0.7-0.1,1.1-0.1c0.1,0,0.3-0.1,0.4-0.1v-0.2l-2.9-0.2    l-0.1,0.2c0.3,0.2,0.6,0.3,0.9,0.4L360.1,58.1z M370.9,58.1l0.4,0.2c0.3,0.1,0.6,0.2,0.9,0.2c0.4,0,0.9-0.1,1.5-0.4l-0.1-0.2    L370.9,58.1z M322.9,58.1v0.2c0.4,0.1,0.8,0.2,1.1,0.2c0.6,0,1.1-0.2,2-0.5l-0.1-0.2L322.9,58.1z M366.3,57.8    c0.5,0.3,1,0.5,1.6,0.5c0.4,0,0.8-0.1,1.5-0.2v-0.2l-3-0.2L366.3,57.8z M317.4,57.8c0.6,0.3,1.2,0.5,1.8,0.5    c0.4,0,0.7-0.1,1.1-0.3l0.4-0.2l-3.2-0.3L317.4,57.8z M307.6,57.6c0.5,0.3,0.9,0.5,1.4,0.5c0.3,0,0.6-0.1,1-0.2v-0.2l-2.3-0.3    L307.6,57.6z M322,57.4l0.4,0.2c0.4,0.2,0.7,0.3,1,0.3c0.4,0,0.8-0.1,1.3-0.4l-0.1-0.2L322,57.4z M312.2,57.5    c0.4,0.2,0.8,0.3,1.2,0.3c0.4,0,0.8-0.1,1.4-0.3v-0.2h-2.5L312.2,57.5z M316.6,57.1c0.6,0.3,1.2,0.5,1.8,0.5    c0.4,0,0.7-0.1,1.1-0.3l0.4-0.2l-3.2-0.3L316.6,57.1z M371.8,57.2l0.4,0.2c0.3,0.1,0.6,0.2,0.9,0.2c0.4,0,0.9-0.1,1.5-0.4    l-0.1-0.2L371.8,57.2z M377.6,56.7c-0.2,0.1-0.4,0.2-0.6,0.2c-0.3,0-0.7,0-1,0.4l-0.3,0.3l0.4-0.1c0.2,0,0.4-0.1,0.6-0.1    c0.4,0,0.8-0.1,1.2-0.5L377.6,56.7z M351.7,57.5v-0.3c0.1-3.8-2.3-6.2-2.3-6.2l-0.2,0.2c0.7,1.2,1.1,2.2,1.4,2.9    c-0.4-0.8-0.8-1.2-0.9-1.2l-0.2,0.2c1.6,2.7,1.3,3.7,1.3,3.7v0.1l0.6,0.6v-0.1L351.7,57.5z M322.8,56.7c-0.5,0-0.9,0.1-1.5,0.4    l0.1,0.2l2.5-0.2v-0.2C323.7,56.9,323.3,56.7,322.8,56.7z M367.3,56.8c0.9,0.4,1.5,0.6,2,0.6c0.3,0,0.6-0.1,0.9-0.2V57l-2.8-0.4    L367.3,56.8z M362.1,56.7c0.8,0.4,1.5,0.6,2.1,0.6c0.4,0,0.7-0.1,1.1-0.2v-0.2l-3.1-0.4L362.1,56.7z M311.4,56.9    c0.4,0.2,0.8,0.3,1.2,0.3c0.4,0,0.8-0.1,1.4-0.3v-0.2h-2.5L311.4,56.9z M315.4,49L315.4,49l0.3,0.2c2.4,2.8,6.4,6,9.1,7.7l0.1-0.2    c-2.9-2.2-5.7-4.9-7.5-6.6c-0.5-0.5-0.9-0.9-1.3-1.2l-0.2-0.3c-1.7-2-5.2-6.1-7-8.6l-0.2-0.3v0.4c0,0.3,0.1,0.5,0.3,0.7    c0.1,0.1,0.1,0.2,0.2,0.3c0,0.1,0.1,0.1,0.1,0.2c0.1,0.1,0.1,0.3,0.1,0.4l-3-1.5l-0.2,0.2l0.6,0.8l0.2-0.1l-0.2,0.1    c0.3,0.1,0.6,0.2,0.9,0.4c0.4,0.2,0.8,0.4,1.3,0.4c0.1,0,0.2,0,0.2,0l0.2,0.2c0.1,0,0.1-0.1,0.1-0.1c0.1,0,0.2,0.1,0.3,0.2    c0,0.1,0.1,0.1,0.1,0.2c0.6,0.5,1,1.2,1.5,1.9c0.4,0.6,0.9,1.2,1.4,1.8C313.3,46.4,314.9,48.3,315.4,49L315.4,49z M315.7,56.4    c0.6,0.2,1.1,0.4,1.7,0.4c0.4,0,0.8-0.1,1.2-0.3l0.4-0.2l-3.2-0.1L315.7,56.4z M306.6,56c0.7,0.5,1.3,0.7,2,0.7    c0.3,0,0.7-0.1,1.2-0.2v-0.2l-3.1-0.6L306.6,56z M378.2,55.9c-0.2,0.1-0.4,0.2-0.6,0.2c-0.3,0-0.7,0-1,0.4l-0.3,0.3l0.4-0.1    c0.2,0,0.4-0.1,0.6-0.1c0.4,0,0.8-0.1,1.2-0.5L378.2,55.9z M363,56.1c0.8,0.4,1.5,0.6,2.1,0.6c0.4,0,0.7-0.1,1.1-0.2v-0.2    l-3.1-0.4L363,56.1z M319.5,56.2v0.2c0.5,0.2,0.9,0.2,1.3,0.2c0.5,0,1-0.1,1.7-0.4l-0.1-0.2L319.5,56.2z M372.9,56.2l0.4,0.2    c0.3,0.1,0.6,0.2,0.9,0.2c0.4,0,0.9-0.1,1.5-0.4l-0.1-0.2L372.9,56.2z M369.4,55.5c-0.4,0-0.7,0.2-0.9,0.7l-0.1,0.1h0.1    c0.4,0.1,0.7,0.2,1.1,0.2c0.3,0,0.7-0.1,1-0.2v-0.2h-0.4l0.5-0.1v-0.2l0,0c-0.2,0-0.4-0.1-0.6-0.1    C369.8,55.5,369.6,55.5,369.4,55.5z M310.3,55.9c0.5,0.3,1,0.4,1.5,0.4s1.1-0.1,1.8-0.4v-0.2h-3.2L310.3,55.9z M315,55.5v0.2    c0.5,0.1,0.9,0.2,1.4,0.2c0.6,0,1.1-0.2,1.5-0.5l0.4-0.3L315,55.5z M318.7,55.6c0.7,0.2,1.2,0.3,1.6,0.3c0.5,0,0.9-0.1,1.4-0.3    v-0.2h-2.9L318.7,55.6z M364.6,54.9c-0.2,0-0.4,0-0.6,0.1l-0.4,0.2l0.4,0.1c0.3,0.1,0.6,0.2,0.9,0.3c0.4,0.1,0.8,0.3,1.2,0.3    c0.3,0,0.5-0.1,0.8-0.2l-0.1-0.2c-0.1,0-0.2,0-0.3,0c-0.3,0-0.5-0.1-0.8-0.2C365.4,55,365.1,54.9,364.6,54.9z M373.7,55.3l0.4,0.2    c0.3,0.1,0.6,0.2,0.9,0.2c0.4,0,0.9-0.1,1.5-0.4l-0.1-0.2L373.7,55.3z M305.8,54.5c0.7,0.7,1.4,1,2.3,1c0.2,0,0.5,0,0.8,0v-0.2    l-3-0.9L305.8,54.5z M370,54.9c0.6,0.4,1.1,0.5,1.5,0.5c0.2,0,0.3,0,0.5-0.1v-0.2l-1.9-0.4L370,54.9z M318.1,54.9    c0.6,0.2,1,0.3,1.4,0.3s0.8-0.1,1.2-0.3l-0.1-0.2h-2.5V54.9z M309.7,54.8c0.5,0.2,0.9,0.3,1.3,0.3c0.5,0,0.9-0.1,1.6-0.3v-0.2    h-2.8L309.7,54.8z M313.5,54.7v0.2c0.4,0.1,0.8,0.2,1.3,0.2c0.6,0,1.1-0.2,1.6-0.5l0.4-0.3L313.5,54.7z M379.7,54.2    c-0.2,0.1-0.4,0.2-0.6,0.2c-0.3,0-0.7,0-1,0.4l-0.3,0.3l0.4-0.1c0.2,0,0.4-0.1,0.6-0.1c0.4,0,0.8-0.1,1.2-0.5L379.7,54.2z     M365.2,54.1L365.2,54.1c0.7,0.4,1.3,0.8,2.3,0.8c0.2,0,0.5,0,0.7-0.1v-0.2l-3-0.8V54.1z M374.6,54.2l0.4,0.2    c0.3,0.1,0.6,0.2,0.9,0.2c0.4,0,0.9-0.1,1.5-0.4l-0.1-0.2L374.6,54.2z M370.5,53.8c0.5,0.5,1,0.7,1.8,0.7c0.1,0,0.3,0,0.5,0v-0.2    l-2.6-0.8L370.5,53.8z M317.2,54c0.5,0.3,1.1,0.5,1.6,0.5s0.9-0.2,1.3-0.5l0.3-0.2h-3.1L317.2,54z M305,53.1    c0.9,1.1,1.7,1.3,3,1.3l0.1-0.2l-2.9-1.2L305,53.1z M380.3,53.4c-0.2,0.1-0.4,0.2-0.6,0.2c-0.3,0-0.7,0-1,0.4l-0.3,0.3l0.4-0.1    c0.2,0,0.4-0.1,0.6-0.1c0.4,0,0.8-0.1,1.2-0.5L380.3,53.4z M312.5,53.6c0.5,0.2,1.1,0.3,1.6,0.3s0.9-0.1,1.3-0.4l0.4-0.2h-3.2    L312.5,53.6z M307.9,53.6c0.5,0.3,1,0.4,1.5,0.4s1.1-0.1,1.8-0.4v-0.2H308L307.9,53.6z M366.4,53.5c0.5,0.3,0.9,0.5,1.3,0.5    s0.7-0.2,1-0.5l0.1-0.1l-2.4-0.6l-0.1,0.2l0.7,0.4h-1.1L366.4,53.5z M371,53c0.6,0.6,1.3,0.9,2.3,0.9c0.2,0,0.4,0,0.6,0v-0.2    l-3.2-1L371,53z M315.7,53.2c0.5,0.3,1.1,0.5,1.7,0.5c0.5,0,1.1-0.1,1.6-0.2v-0.2l-3.2-0.2L315.7,53.2z M375.8,53.2l0.4,0.2    c0.3,0.1,0.6,0.2,0.9,0.2c0.4,0,0.9-0.1,1.5-0.4l-0.1-0.2L375.8,53.2z M372,52.5c0.5,0.5,1,0.7,1.8,0.7c0.1,0,0.3,0,0.5,0V53    l-2.6-0.8L372,52.5z M311.5,52.8c0.5,0.2,1.1,0.3,1.6,0.3s0.9-0.1,1.3-0.4l0.4-0.2h-3.2L311.5,52.8z M315.3,52.5    c0.5,0.3,1.1,0.5,1.7,0.5c0.5,0,1.1-0.1,1.6-0.2v-0.2l-3.2-0.2L315.3,52.5z M306.8,52.2c0.7,0.4,1.3,0.5,2.1,0.5    c0.5,0,0.9-0.1,1.4-0.1c0.2,0,0.4-0.1,0.6-0.1v-0.2l-4-0.3L306.8,52.2z M372.7,51.9c0.5,0.5,1,0.7,1.8,0.7c0.1,0,0.3,0,0.5,0v-0.2    l-2.6-0.8L372.7,51.9z M367.3,52.1c0.6,0.3,1.2,0.5,1.8,0.5c0.4,0,0.9-0.1,1.4-0.2v-0.2l-3.2-0.3L367.3,52.1z M376.5,52.1l0.4,0.2    c0.3,0.1,0.6,0.2,0.9,0.2c0.4,0,0.9-0.1,1.5-0.4l-0.1-0.2L376.5,52.1z M314.1,51.7c0.5,0.3,1.1,0.5,1.7,0.5c0.5,0,1.1-0.1,1.6-0.2    v-0.2l-3.2-0.2L314.1,51.7z M310.2,51.8c0.5,0.2,1.1,0.3,1.6,0.3s0.9-0.1,1.3-0.4l0.4-0.2h-3.2L310.2,51.8z M306,51.5    c0.7,0.3,1.2,0.5,1.8,0.5c0.4,0,0.8-0.1,1.3-0.2v-0.2l-3-0.3L306,51.5z M349.8,50.3l0.2,0.3c0.5,0.7,0.9,1.4,1.9,1.4    c0.3,0,0.7-0.1,1.1-0.3l0.3-0.1l-0.3-0.1c-0.2-0.1-0.5-0.2-0.7-0.3c-0.8-0.3-1.6-0.5-2.2-1.1L349.8,50.3z M373.3,51.3    c0.9,0.4,1.4,0.6,2,0.6c0.3,0,0.7-0.1,1.1-0.2v-0.2l-3-0.4L373.3,51.3z M377.5,51.2l0.4,0.2c0.3,0.1,0.6,0.2,0.9,0.2    c0.4,0,0.9-0.1,1.5-0.4l-0.1-0.2L377.5,51.2z M368.2,51.2c0.5,0.2,1.2,0.4,2,0.4c0.6,0,1.2-0.1,1.8-0.4V51h-3.7L368.2,51.2z     M313,50.3c1.2,0.7,2.2,1,3.2,1c0.3,0,0.6,0,1-0.1V51c-0.8-0.1-1.7-0.3-2.5-0.5c-0.5-0.1-1-0.3-1.6-0.4L313,50.3z M305.5,50.6    c0.7,0.3,1.2,0.5,1.8,0.5c0.4,0,0.8-0.1,1.3-0.2v-0.2l-3-0.3L305.5,50.6z M309.2,50.8c0.5,0.2,1.1,0.3,1.6,0.3s0.9-0.1,1.3-0.4    l0.4-0.2h-3.2L309.2,50.8z M375.2,49.9c-0.4,0-0.7,0.2-0.9,0.7l-0.1,0.1h0.1c0.4,0.1,0.7,0.2,1.1,0.2c0.3,0,0.7-0.1,1-0.2v-0.2    h-0.5l0.5-0.1v-0.2l0,0c-0.2,0-0.4-0.1-0.6-0.1C375.7,50,375.5,49.9,375.2,49.9z M345.2,50.1c0.2,0.5,0.6,0.8,1.1,0.8    c0.2,0,0.4,0,0.5-0.1c0.1,0,0.2,0,0.3,0c0.1,0,0.1,0,0.1,0l0.1-0.2c-0.1-0.1-0.3-0.5-0.1-1l-0.2-0.1c-0.2,0.4-0.5,0.6-0.9,0.6    c-0.3,0-0.6-0.1-0.8-0.2l-0.2-0.1L345.2,50.1z M369.1,50.5c0.5,0.2,1.2,0.4,2,0.4c0.6,0,1.2-0.1,1.8-0.4v-0.2h-3.7L369.1,50.5z     M342.6,48.5c0.1,0.8,0.5,1.1,0.8,1.4c0.2,0.2,0.4,0.4,0.5,0.7l0.2-0.1c-0.1-0.6-0.4-0.9-0.7-1.3c-0.2-0.2-0.4-0.5-0.6-0.8    L342.6,48.5z M311.5,49.2l-0.1,0.3c0.8,0.1,1.5,0.4,2.2,0.6c0.7,0.3,1.5,0.5,2.2,0.5c0.2,0,0.3,0,0.5,0v-0.2L313,49l-0.1,0.2    L313,49L311.5,49.2z M378.2,50.1l0.4,0.2c0.3,0.1,0.6,0.2,0.9,0.2c0.4,0,0.9-0.1,1.5-0.4l-0.1-0.2L378.2,50.1z M304.9,49.5    c0.7,0.3,1.2,0.5,1.8,0.5c0.4,0,0.8-0.1,1.2-0.2v-0.2l-2.9-0.3L304.9,49.5z M370,49.7c0.5,0.2,1.2,0.4,2,0.4    c0.6,0,1.2-0.1,1.8-0.4v-0.2H370V49.7z M308.3,49.6c0.4,0.3,0.8,0.4,1.2,0.4c0.4,0,0.7-0.1,1-0.3l0.4-0.2l-2.9-0.1L308.3,49.6z     M345.5,48c0.2,0.5,0.3,0.8,0.1,1c-0.1,0.2-0.6,0.3-1,0.3v0.2c0.1,0,0.2,0.1,0.3,0.2c0.2,0.1,0.5,0.3,0.7,0.3s0.4-0.1,0.6-0.3    s0.3-0.5,0.2-0.7c0-0.4-0.3-0.7-0.8-1.1L345.5,48z M375.2,49.3v0.2c0.4,0.2,0.8,0.3,1.2,0.3c0.5,0,1-0.1,1.7-0.4l-0.1-0.2    L375.2,49.3z M379,49.2l0.4,0.2c0.3,0.1,0.6,0.2,0.9,0.2c0.4,0,0.9-0.1,1.5-0.4l-0.1-0.2L379,49.2z M344.8,47.4    c-0.3,0-0.5,0.1-0.7,0.4c-0.2,0.4-0.4,0.8,0.2,1.3l0.2,0.2V49c0-0.6,0.3-0.9,0.9-1.2l0.2-0.1l-0.2-0.1    C345.2,47.5,345,47.4,344.8,47.4z M304.6,48.7c0.6,0.3,1,0.4,1.5,0.4c0.3,0,0.6-0.1,1-0.2v-0.2l-2.4-0.2L304.6,48.7z M372.3,48    c-0.6,0-1,0.2-1.2,0.6l-0.1,0.2h0.2c0.7,0.2,1.4,0.3,2.1,0.3c0.5,0,0.9-0.1,1.4-0.2v-0.2l-0.8-0.1h0.8v-0.3l0,0    c-0.4,0-0.8-0.1-1.2-0.2C373.1,48.1,372.7,48,372.3,48z M307.8,49.1h2V49c-0.1-0.9-0.6-1-1-1c-0.1,0-0.3,0-0.4,0s-0.2,0-0.4,0    c-0.2,0-0.3,0-0.4-0.1l-0.2,0.2c0.2,0.4,0.5,0.4,0.8,0.4h0.3c0.1,0,0.1,0,0.2,0L307.8,49.1z M309.7,47.6v0.2    c0.8,0.1,1.5,0.4,2.2,0.6c0.7,0.3,1.5,0.5,2.2,0.5c0.2,0,0.3,0,0.5,0v-0.2l-3.3-1.3l-0.1,0.2l0.1-0.2L309.7,47.6z M375.8,48.3    l0.4,0.2c0.4,0.2,0.7,0.3,1.1,0.3c0.5,0,0.9-0.2,1.5-0.5l-0.1-0.2L375.8,48.3z M379.7,48.1l0.4,0.2c0.3,0.1,0.6,0.2,0.9,0.2    c0.4,0,0.9-0.1,1.5-0.4l-0.1-0.2L379.7,48.1z M376.4,47.5l0.4,0.2c0.4,0.2,0.7,0.3,1.1,0.3c0.5,0,0.9-0.2,1.5-0.5l-0.1-0.2    L376.4,47.5z M306.6,47.4c0.4,0.3,0.8,0.4,1.2,0.4c0.4,0,0.7-0.1,1-0.3l0.4-0.2l-2.9-0.1L306.6,47.4z M372.2,47.3v0.2    c0.5,0.1,1,0.2,1.4,0.2c0.7,0,1.3-0.2,2.1-0.6l-0.1-0.2L372.2,47.3z M312.8,47.1l0.1-0.4l-4.5-1.5l-0.1,0.2v0.2l1.7,0.9    c0.5,0.3,1,0.5,1.4,0.5c0.1,0,0.2,0,0.4,0L312.8,47.1z M377.6,46.8l0.4,0.1c0.3,0.1,0.5,0.1,0.8,0.1c0.6,0,1.1-0.2,1.8-0.8    l-0.1-0.2L377.6,46.8z M372.7,46.6v0.2c0.4,0.1,0.8,0.1,1.1,0.1c1.1,0,2-0.4,2.7-0.8l-0.1-0.2L372.7,46.6z M305.8,46.1    c0.4,0.3,0.8,0.4,1.2,0.4c0.4,0,0.7-0.1,1-0.3l0.4-0.2l-2.9-0.1L305.8,46.1z M379.2,46.1c0.6,0,1.3-0.1,1.9-0.8l0.3-0.3l-2.6,0.9    v0.2h0.1L379.2,46.1z M374.2,45.5v0.2c0.3,0.1,0.7,0.2,1.1,0.2c0.5,0,1-0.2,1.4-0.5l0.3-0.3L374.2,45.5z M311.4,45.3l0.1-0.4    l-4.5-1.5l-0.1,0.2v0.2l1.7,0.9c0.5,0.3,0.9,0.4,1.4,0.4c0.1,0,0.3,0,0.4,0L311.4,45.3z M304.5,43.7c0.6,1,1.2,1.5,1.9,1.5    c0.3,0,0.6-0.1,0.9-0.2h0.1l-0.1-0.1c-0.4-0.7-1-0.9-1.7-1C305.3,43.8,304.9,43.8,304.5,43.7l-0.2-0.3L304.5,43.7z M379.5,45.1    c0.6,0,1.3-0.1,1.9-0.8l0.3-0.3l-2.6,0.9v0.2h0.1L379.5,45.1z M374.8,44.4v0.2c0.6,0.1,1.1,0.2,1.5,0.2c0.5,0,1-0.1,1.6-0.4    l-0.1-0.2L374.8,44.4z M376.3,43.3c-0.4,0-0.8,0.1-1.2,0.2v0.2l3,0.2v-0.2C377.4,43.4,376.9,43.3,376.3,43.3z M381.8,42.3    c-0.2,0.1-0.4,0.2-0.6,0.2c-0.5,0.1-1.1,0.3-1,1.3v0.1h0.1c0.7-0.2,1.3-0.3,1.8-1.1l-0.2-0.2l-0.4,0.2l0.4-0.3L381.8,42.3z     M306.5,42.4c1.3,1.1,2.5,1.3,3.7,1.5h0.2v-0.2c-0.1-1-0.8-1.2-1.4-1.4c-0.1,0-0.3-0.1-0.4-0.2c-0.3-0.1-0.7-0.3-1-0.5l-0.4-0.2    l-0.1,0.2l0.1-0.2c-0.4,0.1-0.5,0.1-0.5,0.3s0.3,0.3,0.5,0.4c0.6,0.3,1.2,0.5,1.8,0.7l0,0l-2.2-0.7L306.5,42.4z M377.1,42.5    c-0.4,0-0.8,0.1-1.2,0.2v0.2l3,0.2v-0.2C378.2,42.7,377.6,42.5,377.1,42.5z M377.5,41.7c-0.4,0-0.8,0.1-1.2,0.2v0.2l3,0.2v-0.2    C378.6,41.9,378.1,41.7,377.5,41.7z M378.1,41c-0.4,0-0.6,0.1-1,0.3l0.1,0.2l1.5-0.2v-0.2C378.4,41,378.3,41,378.1,41z     M378.1,39.9c-0.3,0.4-0.4,0.6-0.3,0.8c0,0,0.1,0.1,0.2,0.1c0.3,0,0.9-0.4,1.6-0.9l0.4-0.3h-0.4c0.2-0.2,0.4-0.6,0.5-1.1l0.1-0.3    l-0.7,0.4c0.2-0.3,0.2-0.3,0.2-0.4v-0.1h-0.1C379.6,38.1,379.6,38.1,378.1,39.9l0.1,0.2L378.1,39.9z M340.9,87    c0.2-1.3,0.9-2.5,1.6-3.7c-0.2,0.6-0.5,1.1-0.7,1.7c-0.3,0.6-0.6,1.1-0.8,1.8L340.9,87z M338.7,70.6c0,0-0.1,0-0.2-0.4l0.1-0.3    l0,0c0.2,0.1,0.3,0.3,0.4,0.5l0,0C338.9,70.6,338.8,70.6,338.7,70.6z M338.8,69.2L338.8,69.2c0.1-0.1,0.1-0.1,0.2-0.1l0,0    c0,0,0,0,0,0.1s-0.1,0.2-0.3,0.6L338.8,69.2z M342.8,64.8c0.1-0.1,0.1-0.2,0.2-0.2C343,64.6,342.9,64.7,342.8,64.8z M375.6,50.6    L375.6,50.6h-0.1H375.6z"/>
		<path class="st1" d="M371,65.9c-0.4-0.1-0.7-0.2-1-0.2c-0.2,0-0.4,0-0.7,0.1l0.1,0.5h0.1l1.4,0.1L371,65.9z M369.4,66    c0.2-0.1,0.4-0.1,0.6-0.1c0.3,0,0.5,0.1,0.9,0.2C370.3,66.1,370,66.1,369.4,66z"/>
	</g>
	<path class="st0" d="M330.7,92c-0.5,0.4-1,0.7-1.6,0.7c-0.2,0-0.4,0-0.6,0c-1-0.1-1.9-0.1-2.7,0.7c-0.5,0.6-1.2,0.6-1.8,0.1   c-0.8-0.7-1.7-1-2.7-1c-0.1,0-0.3,0-0.4-0.1c-0.1,0-0.2,0-0.3,0l0,0c-0.3,0.2-0.5,0.3-0.8,0.5c-1.9,1.1-4.8-0.5-7.3,0.8   c0,0,1.4,0.3,1.4,1.3c0.7-1.4,1.4,0,2.5-0.9c1.5,1.1,3.1,0.8,3.5,0.5c2.3-1.2,4.5,0.2,6.7-0.2c1.7-0.4,2.1,1.2,3.5,0.2   c1-0.6,1.3-0.2,1.9-0.1c0.8,0.3,1.4-1.2,1.4-0.7c0.2,0,0.4,0,0.8,0c-0.3,0.4-0.5,0.7-0.7,1s0.7-0.4,0.6-0.1c0.4,0.1,0,0.5,0.5,0.6   c0.2,0,0.8-0.1,0.9-0.3c0.6-1.2,1.3-0.5,2.3-0.7c1.1-0.2,1.1,0.8,1.1,1.6c0.7-0.8,1.6-0.3,2.2-0.7c1.9-1.3,3.7-2.1,4.8,0.9   c0.5-0.4,0.7-1,1.3-1c0.4,0.3-0.4,0.6,0.3,1c1.4-1.8,3-3.3,5.1-0.7c0.4-1.2,1.2-1.2,2-1.2c1.3,0,2.6,0,3.9,0c0.8,0,1.7-0.2,1.7,1.1   c0,0.4,0.6,0.5,0.8,0.1c1.3-2.3,4-0.8,5.7-2c0.3-0.2,1.4,0.2,1.8,0.7c0.9,1,1.4,0,1.9-0.3c0.6-0.3,0.5-1,0.1-1.5   c-0.7-0.7-1.5-1.1-2.6-1c-1.4,0.1-2.6,0.7-3.9,1.3c-0.1-0.4-0.2-0.8-0.1-1.1c0.5-2-0.7-1.3-1.5-0.8c-0.7,0.4-1.3,0.8-2.2,0.1   c0,1.6-0.7,2.1-1.9,1.3c-2.6-1.6-5-1.7-7.3,0.4c-0.3,0.2-0.5,0-0.8-0.2c-1.2-0.4-3.2-1.4-3.5-1.1c-1.8,2.4-3.5-0.8-5.3,0.2   c-0.3,0.1-1.5,0.3-2.3,0.1c-1.1-0.2-2.5-1-3.4,0.6c-0.2,0.4-0.8,0.5-1.7,1.1c1.4-1.7,0.9-2.4-0.5-2.8c-0.8-0.2-1.4,0.2-2,0.7   l-0.1,0.1C331.3,91.5,331,91.8,330.7,92z"/>
	<g>
		<path class="st2" d="M372.3,28.8c0,0-8.8-5.4-28.8-5.4c-20,0.4-28.8,6-28.8,6c-2.7,1.5-2.7,4-2.7,4c1,3.5,3.2,2,3.2,2    c5-6.2,28.5-6.9,28.5-6.9s22,0.4,28.6,6.5c0,0,2.9,0.6,3-2.5C375.2,32.6,375,30.2,372.3,28.8z"/>
		<path class="st0" d="M374.5,29.5c0,0-6.2-7.7-31.1-7.3c-24.9,0.2-30.9,7.9-30.9,7.9c-5.2,5.9-0.2,10.1,0.6,10.8    c0.9,0.9,2.8,1.4,2.8,1.4c2.1,0.7,5.5-0.8,5.5-0.8l6.1-4.3c1.1-0.7,2-0.6,1.9-0.3c-0.1,0.5-0.9,0.7-0.9,0.7l-2.8,1.4    c-2.7,2.3,1.1,3.8,1.1,3.8c2.5,1.2,5.9-2.6,5.9-2.6c1.3-1.1,1.7-1.2,1.7-1.2c-1.5-2.2-4.7,1-4.7,1c-2.4,2.1-3.9,1.2-3.9,1.2    c-0.7-0.8,2-2.1,2-2.1c3.7-1,2.5-2.9,2.5-2.9c-2.1-4.2-9.5,1.7-9.5,1.7c-4,3.3-6.3,1.9-6.8,1.7c5.6-9.6,28-8.7,29.2-8.7h0.1    c1.2-0.1,22.1-1,29,7.2c0,1-0.9,1.7-0.9,1.7c-0.8,0.5-2.1-0.4-2.1-0.4l-2.8-1.7c-5.3-3.5-8.5-3.4-8.5-3.4c-6,0.4-3.9,4.4-3.9,4.4    c2.6,3.7,5.4,3.3,5.4,3.3c1.7-0.1,4.4,0.6,4.4,0.6c2.9,0.4,3.3,2.1,3.3,2.1c1.9-3.5-5.3-5-5.3-5c-2.8-0.1-5.4-0.9-5.4-0.9    c-2.4-1.1-1.4-2.2-1.4-2.2c1.5-1.4,4.4,0.2,4.4,0.2l6.1,3c4,2.6,8,0.6,8,0.6S380.2,35.8,374.5,29.5z M330.9,40.4    c1.2-1.2,2-1.3,2-1.3c-2.9,3.8-5.2,2.9-5.2,2.9C328,42,329.9,41.4,330.9,40.4z M323,37.6c0,0,2.8-2.5,5.9-2c0,0,0,0.7-1.3,0.7    c0,0-2.1,0.3-4.4,2.7c0,0-4.3,3.9-7.1,2.2C316.1,41.2,319,41.1,323,37.6z M357,39.6l1.8,0.5c0,0,1.5,0.5,2.9,0.4    c0,0,3.8,0.3,5.3,2.4c0,0-1.8-1.2-4-1.5c0,0-3.4-0.4-3.5-0.4c-0.8-0.2-2.1-0.1-3.7-1.9L357,39.6z M363.3,37.5c0,0-2.2-1.1-3.6-1.6    c0,0-0.7-0.3-2-0.5c0,0,1.6-0.8,5.7,1.4c0,0,2.9,1.3,4.6,2.8C367.9,39.5,365.5,38.6,363.3,37.5z M372.1,35.1    c-6.6-6.1-28.6-6.5-28.6-6.5S320,29.3,315,35.5c0,0-2.1,1.5-3.2-2c0,0,0.1-2.6,2.7-4c0,0,8.8-5.6,28.8-6c20,0,28.8,5.4,28.8,5.4    c2.7,1.4,2.9,3.8,2.9,3.8C375,35.7,372.1,35.1,372.1,35.1z"/>
	</g>
	<g>
		<path class="st0" d="M358.2,43.4l-0.4-0.3l-1.6,2.1c0.1,0.1,0.1,0.4,0.2,0.5L358.2,43.4z"/>
		<path class="st0" d="M318.1,44.8l-0.3,0.4l8,6.9c0.1-0.1-0.3-0.7-0.2-0.8L318.1,44.8z"/>
		<path class="st0" d="M320.1,43.9l-0.4,0.3l6.7,6.7c0.1-0.1-0.2-0.7-0.1-0.8L320.1,43.9z"/>
		<path class="st0" d="M321.6,42.9l-0.4,0.3l6,6.7c0.1-0.1-0.1-0.6,0-0.7L321.6,42.9z"/>
		<path class="st0" d="M323.3,42.3l-0.4,0.3l5.3,6.2c0.1-0.1,0-0.5,0.1-0.6L323.3,42.3z"/>
		<path class="st0" d="M326.7,44l-0.4,0.3l2.9,3.5c0.1-0.1,0-0.5,0.1-0.6L326.7,44z"/>
		<path class="st0" d="M328.8,44.1l-0.4,0.3l1.9,2.6c0.1-0.1,0.1-0.4,0.2-0.6L328.8,44.1z"/>
		<path class="st0" d="M330.6,43.8l-0.4,0.3l1.3,2c0.1-0.1,0.1-0.5,0.2-0.6L330.6,43.8z"/>
		<path class="st0" d="M331.9,42.6l-0.4,0.2l1.3,2.3c0.1-0.1,0.1-0.4,0.3-0.5L331.9,42.6z"/>
		<path class="st0" d="M333.2,41.9l-0.5,0.2l1.2,2.4c0.1-0.1,0.2-0.4,0.3-0.5L333.2,41.9z"/>
		<path class="st0" d="M334.3,40.4l-0.4,0.2l1.1,2.6l0.1-0.1c0.1-0.1,0-0.5,0.1-0.6L334.3,40.4z"/>
		<path class="st0" d="M334.8,37l-0.5,0.2l1.7,5.1c0.2-0.1,0.2-0.5,0.3-0.6L334.8,37z"/>
		<path class="st0" d="M336.8,36.9l-0.5,0.1l1.4,5c0.2,0,0.2-0.7,0.3-0.7L336.8,36.9z"/>
		<path class="st0" d="M338.6,37.3l-0.5,0.1l0.9,4.1c0.2,0,0.2-0.5,0.4-0.5L338.6,37.3z"/>
		<path class="st0" d="M340.3,35.3l-0.5,0.1l0.9,5.8c0.2,0,0.3-0.3,0.5-0.3L340.3,35.3z"/>
		<path class="st0" d="M342,35.1h-0.5l0.4,5.6c0.2,0,0.3-0.2,0.5-0.2L342,35.1z"/>
		
			<rect x="343.4" y="34.3" transform="matrix(1 -5.002594e-03 5.002594e-03 1 -0.183 1.7196)" class="st0" width="0.5" height="6.3"/>
		<polygon class="st0" points="345.9,34.8 345.4,34.8 345.1,40.4 345.6,40.5   "/>
		<polygon class="st0" points="347.6,36.5 347.1,36.4 346.8,40.6 347.2,40.9   "/>
		<path class="st0" d="M349.9,35l-0.5-0.1l-1.1,5.5c0.2,0,0.3,0.4,0.4,0.4L349.9,35z"/>
		<path class="st0" d="M351.9,35.7l-0.5-0.2l-1.7,5.7v0.1c0.2,0,0.3,0.3,0.4,0.3L351.9,35.7z"/>
		<path class="st0" d="M353.4,37.5l-0.5-0.2l-1.9,4.6c0.2,0,0.2,0.3,0.4,0.4L353.4,37.5z"/>
		<path class="st0" d="M354,40.6l-0.4-0.2l-1.2,1.9c0.2,0.1,0.2,0.4,0.4,0.5L354,40.6z"/>
		<path class="st0" d="M355.2,41.6l-0.4-0.2l-1.2,2c0.2,0.1,0.2,0.4,0.3,0.4L355.2,41.6z"/>
		<path class="st0" d="M356.6,42.7l-0.4-0.3l-1.3,1.9c0.1,0.1,0.1,0.4,0.3,0.5L356.6,42.7z"/>
		<path class="st0" d="M359.7,44l-0.4-0.3l-1.8,2.4c0.1,0.1,0.1,0.4,0.2,0.5L359.7,44z"/>
		<path class="st0" d="M361.6,44.4l-0.4-0.3l-2.5,2.9c0.1,0.1,0.1,0.4,0.2,0.5L361.6,44.4z"/>
		<path class="st0" d="M363.6,44.8l-0.4-0.3l-3.5,3.4c0.1,0.1,0,0.5,0.1,0.6L363.6,44.8z"/>
		<path class="st0" d="M363.8,46.8l-0.3-0.4l-2.6,2.3c0.1,0.1-0.1,0.6,0,0.7L363.8,46.8z"/>
		<path class="st0" d="M366.6,46.3l-0.3-0.4l-4.6,4c0.1,0.1,0,0.6,0.1,0.7L366.6,46.3z"/>
		<path class="st0" d="M368.4,47.1l-0.3-0.4l-5.3,4.6c0.1,0.1-0.1,0.5,0,0.7L368.4,47.1z"/>
		<path class="st0" d="M335.5,43c-0.1,0-0.2,0.1-0.3,0.1L335.5,43L335.5,43z"/>
	</g>
	<g>
		<path class="st0" d="M32.4,61.8c-2.4-2-4.9-3-7.6-3c-3.5,0-6.2,1.3-8.2,3.8c-1.9,2.5-2.9,6.1-2.9,10.6c0,4,0.8,7.7,2.3,10.9    c1.6,3.2,4,4.9,7.4,4.9c0.8,0,1.7-0.1,2.6-0.3c0.9-0.2,1.9-0.4,2.8-0.8c1.7-0.7,3.3-1.7,4.8-3.2c1.5-1.4,2.7-3.4,3.6-5.8h1.4V90    h-1c-0.1-0.2-0.2-0.4-0.3-0.6s-0.2-0.3-0.2-0.4c-0.2-0.4-0.4-0.6-0.6-0.8C36.3,88,36,88,35.7,88s-0.7,0.1-1.1,0.2    c-0.5,0.1-1,0.3-1.7,0.5c-0.5,0.1-0.9,0.3-1.3,0.4c-0.4,0.1-0.8,0.3-1.3,0.3c-0.9,0.3-1.9,0.5-3,0.7c-1,0.2-2.3,0.2-3.9,0.2    c-4.3,0-8.2-1.6-11.5-4.9c-3.3-3.2-5-7.2-5-11.9C7.2,68.8,9,65,12.3,62c3.4-3,7.6-4.5,12.8-4.5c0.5,0,1.1,0.1,1.6,0.1    c0.6,0.1,1.2,0.2,1.8,0.4c0.3,0.1,0.7,0.2,1,0.3c0.4,0.1,0.7,0.2,1,0.3c0.9,0.3,1.7,0.5,2.4,0.8c0.8,0.2,1.3,0.4,1.8,0.4    c0.7,0,1.1-0.1,1.4-0.2c0.3-0.1,0.6-0.4,0.9-0.8c0.1-0.1,0.1-0.2,0.2-0.3c0.1-0.1,0.1-0.2,0.2-0.4h1v10.4H37    C36.4,66,34.8,63.7,32.4,61.8z"/>
		<path class="st0" d="M69,63.1c0-0.1,0-0.1,0-0.2c0-0.1,0-0.1,0-0.2c0-1-0.2-1.9-0.5-2.4c-0.4-0.6-1.6-0.9-3.8-0.9V58h14.8v1.3    c-1.8,0-2.9,0.3-3.3,0.7c-0.4,0.5-0.7,1-0.7,1.6c0,0.1,0,0.2,0,0.3s0,0.2,0,0.3v0.1v0.1v21.4c0,1.9,0.3,3,0.8,3.4s1.6,0.6,3.3,0.6    v1.3H64.7v-1.3c2,0,3.2-0.1,3.7-0.3c0.4-0.3,0.7-1.1,0.7-2.6V73.8H52.7v10.7c0,1.2,0.2,2.1,0.7,2.6s1.3,0.8,2.5,0.8    c0.2,0,0.3,0,0.5,0s0.4,0,0.6,0v1.3H42.6v-1.3c0.1,0,0.2,0,0.2,0c0.1,0,0.1,0,0.2,0c1,0,1.8-0.1,2.4-0.4c0.6-0.3,0.9-1.3,0.9-3    V63.1c0-1.8-0.3-2.9-0.9-3.2c-0.6-0.3-1.6-0.5-3.1-0.5V58H57v1.3c-1.5,0-2.6,0.2-3.3,0.5s-1,1.4-1,3.2v9H69V63.1z"/>
		<path class="st0" d="M86.5,62.8c0-1.5-0.2-2.4-0.6-2.8c-0.4-0.4-1.3-0.6-2.8-0.6V58h25.2l3.3,8l-1,0.3c-1.2-1.5-2.2-2.7-3-3.6    c-0.9-0.9-1.7-1.6-2.5-2.1s-1.6-0.8-2.5-1s-1.9-0.3-3-0.4h-6.7v13.1h3.7c2.5,0,4.3-0.5,5.6-1.7c1.2-1.2,1.9-2.4,2.1-3.8    c0-0.1,0-0.3,0-0.4s0-0.2,0-0.4h1.4v14.7h-1.4c-0.2-2.8-1-4.7-2.4-5.6s-3.3-1.4-5.7-1.4h-3.4v14.1h8.4c2,0,3.8-0.7,5.4-2.1    s3.2-3.3,4.7-5.6l1,0.3l-2.3,8.7H83.1v-1.3c1.2,0,2-0.2,2.6-0.6c0.5-0.4,0.8-1.4,0.8-3.1V70.8V62.8z"/>
		<path class="st0" d="M119,62.8c0-1.5-0.2-2.4-0.6-2.8c-0.4-0.4-1.4-0.6-3.1-0.6V58h13.1c0.8,0,1.7,0.1,2.7,0.1c1,0.1,2,0.2,3,0.4    c2.2,0.4,4.1,1.2,6,2.4c1.8,1.2,2.9,3,3.1,5.5c0,0.1,0,0.2,0,0.3c0,0.1,0,0.2,0,0.2c0,1.7-0.4,3-1.3,3.9c-0.8,0.9-1.8,1.5-2.8,1.9    c-0.6,0.3-1.2,0.4-1.9,0.6c-0.6,0.1-1.1,0.2-1.5,0.3c0.3,0.2,0.7,0.4,1,0.8c0.4,0.4,0.8,0.9,1.3,1.5l5.4,8.7    c0.1,0.2,0.2,0.4,0.3,0.5c0.1,0.2,0.2,0.3,0.3,0.4c0.5,1,1.2,1.6,1.9,1.9s1.7,0.5,3,0.5v1.3h-10.4l-6-12c-0.1-0.3-0.3-0.5-0.4-0.7    c-0.1-0.2-0.2-0.4-0.4-0.6c-0.5-0.8-1.1-1.2-1.8-1.4c-0.6-0.2-1.5-0.3-2.7-0.4c-0.3,0-0.5,0-0.8-0.1c-0.3,0-0.6,0-1-0.1v10.7    c0,1.1,0.2,1.9,0.6,2.5s1.3,0.9,2.7,0.9c0.1,0,0.3,0,0.5,0s0.3,0,0.5,0v1.3h-14.4V88c1.5,0,2.5-0.1,3-0.4s0.7-1.4,0.7-3.2V73.2    L119,62.8L119,62.8z M125.4,59.4v13.4c0.4,0.1,0.7,0.1,1.1,0.1s0.7,0,1,0c3.6,0,6-0.6,7.2-1.7s1.8-2.4,2-3.7c0-0.3,0-0.6,0.1-0.9    c0-0.3,0-0.6,0-0.8c-0.1-1.8-0.8-3.4-2.1-4.6c-1.2-1.2-3.6-1.9-6.9-1.9c-0.4,0-0.7,0-1.1,0C126.2,59.4,125.8,59.4,125.4,59.4    L125.4,59.4z"/>
		<path class="st0" d="M150.2,73.2c0-0.8,0.1-1.8,0.4-2.8c0.3-1,0.6-2.1,1.1-3.1c1.1-2.3,2.9-4.4,5.3-6.4c2.4-1.9,5.5-3,9.3-3.1    c0.6,0,1.1,0,1.7,0.1c0.6,0.1,1.2,0.2,1.7,0.3c3.2,0.8,6.2,2.5,8.9,5.3c2.7,2.7,4.1,6.1,4.1,10.1c0,4.9-1.6,8.8-4.9,11.8    c-3.3,3-7,4.6-11.2,4.6s-8-1.5-11.4-4.6C151.9,82.3,150.2,78.2,150.2,73.2L150.2,73.2z M176,72.8c-0.3-5.2-1.5-8.7-3.4-10.7    c-1.9-2-4-3-6.4-3c-2.7,0-4.8,1-6.1,2.9s-2.3,4-2.7,6.3c-0.2,0.9-0.3,1.9-0.4,2.8c-0.1,0.9-0.1,1.7-0.1,2.5c0,0.1,0,0.2,0,0.2    c0,0.1,0,0.1,0,0.2s0,0.2,0,0.2c0,0.1,0,0.1,0,0.2c0,0.5,0,1,0.1,1.5c0,0.5,0.1,1,0.1,1.5c0.4,2.9,1.4,5.5,3,7.9s3.8,3.6,6.5,3.6    c3,0,5.4-1.4,7-4.1s2.4-6.3,2.5-10.7c0-0.1,0-0.2,0-0.3c0-0.1,0-0.2,0-0.3c0-0.1,0-0.2,0-0.3S176,73,176,72.8L176,72.8z"/>
		<path class="st0" d="M194.5,77.2v7.4c0,1.7,0.4,2.7,1.2,3s2,0.4,3.5,0.4v1.3h-15.1V88c0.2,0.1,0.4,0.1,0.6,0.1s0.3,0,0.5,0    c1.7,0,2.6-0.4,2.9-1.1c0.3-0.7,0.4-2,0.4-3.8c0-0.1,0-0.3,0-0.4c0-0.2,0-0.3,0-0.4V63.8c0-1.8-0.2-3-0.7-3.5s-1.7-0.8-3.7-0.8    v-1.4h15.1v1.3c-1.5,0-2.6,0.3-3.4,0.7c-0.7,0.4-1.2,1.2-1.3,2.4v12.7l9.7-12c0.2-0.2,0.4-0.4,0.6-0.6s0.3-0.5,0.4-0.7    c0.1-0.1,0.1-0.3,0.1-0.4c0-0.1,0.1-0.3,0.1-0.4c0-0.4-0.2-0.7-0.6-1c-0.4-0.3-1.2-0.4-2.2-0.4v-1.4h10v1.3    c-1.7,0-2.9,0.2-3.7,0.6c-0.8,0.4-1.4,1-2,1.7c-0.2,0.2-0.3,0.4-0.5,0.7c-0.2,0.2-0.3,0.5-0.5,0.7l-5.7,7.3l11.1,14.8    c0.6,0.7,1.1,1.2,1.4,1.6c0.4,0.4,0.7,0.6,1,0.8c0.3,0.2,0.7,0.3,1,0.3c0.4,0,0.9,0,1.5,0c0.1,0,0.2,0,0.4,0c0.1,0,0.3,0,0.4,0    v1.3h-10.4L196.2,75L194.5,77.2z"/>
		<path class="st0" d="M223.2,62.8c0-1.5-0.2-2.4-0.6-2.8c-0.4-0.4-1.3-0.6-2.8-0.6V58H245l3.3,8l-1,0.3c-1.2-1.5-2.2-2.7-3-3.6    c-0.9-0.9-1.7-1.6-2.5-2.1s-1.6-0.8-2.5-1s-1.9-0.3-3-0.4h-6.7v13.1h3.7c2.5,0,4.3-0.5,5.6-1.7c1.2-1.2,1.9-2.4,2.1-3.8    c0-0.1,0-0.3,0-0.4s0-0.2,0-0.4h1.4v14.7H241c-0.2-2.8-1-4.7-2.4-5.6s-3.3-1.4-5.7-1.4h-3.4v14.1h8.4c2,0,3.8-0.7,5.4-2.1    c1.6-1.4,3.2-3.3,4.7-5.6l1,0.3l-2.3,8.7h-26.8v-1.3c1.2,0,2-0.2,2.6-0.6c0.5-0.4,0.8-1.4,0.8-3.1V70.8v-8H223.2z"/>
		<path class="st0" d="M256.1,62.8c0-1.5-0.2-2.4-0.6-2.8c-0.4-0.4-1.3-0.6-2.8-0.6V58h25.2l3.3,8l-1,0.3c-1.2-1.5-2.2-2.7-3-3.6    c-0.9-0.9-1.7-1.6-2.5-2.1s-1.6-0.8-2.5-1s-1.9-0.3-3-0.4h-6.7v13.1h3.7c2.5,0,4.3-0.5,5.6-1.7c1.2-1.2,1.9-2.4,2.1-3.8    c0-0.1,0-0.3,0-0.4s0-0.2,0-0.4h1.4v14.7h-1.4c-0.2-2.8-1-4.7-2.4-5.6s-3.3-1.4-5.7-1.4h-3.4v14.1h8.4c2,0,3.8-0.7,5.4-2.1    s3.2-3.3,4.7-5.6l1,0.3l-2.3,8.7h-26.8v-1.3c1.2,0,2-0.2,2.6-0.6c0.5-0.4,0.8-1.4,0.8-3.1V70.8v-8H256.1z"/>
	</g>
	<g>
		<path class="st0" d="M407.9,63.8c0-1.6-0.3-2.7-0.8-3.1c-0.5-0.4-1.7-0.6-3.6-0.6v-1.4h15.1c0.7,0,1.6,0.1,2.4,0.2    c0.9,0.1,1.8,0.2,2.7,0.5c2,0.5,3.9,1.3,5.6,2.6c1.7,1.2,2.6,3.1,2.7,5.5c0,2.2-0.7,3.9-2.2,5.2c-1.4,1.3-3.9,2-7.2,2.2h-8.3v10.7    c0.1,1.6,0.6,2.5,1.4,2.7s1.8,0.4,3,0.4c0.1,0,0.2,0,0.3,0c0.1,0,0.2,0,0.3,0V90h-15.7v-1.3c2.2,0,3.5-0.2,3.8-0.6    c0.4-0.4,0.5-1.6,0.5-3.4V69.5L407.9,63.8L407.9,63.8z M414.3,62.7v10.7c0.4,0.1,0.8,0.1,1.3,0.1c0.4,0,0.8,0,1.2,0    c2.6,0,4.8-0.4,6.3-1.3c1.6-0.8,2.5-2.6,2.6-5.2c0-2.7-0.7-4.5-2.2-5.4s-3.3-1.5-5.5-1.6c-1.3,0-2.3,0.2-2.8,0.5    C414.6,60.9,414.3,61.6,414.3,62.7L414.3,62.7z"/>
		<path class="st0" d="M461.2,63.8c0-0.1,0-0.1,0-0.2c0-0.1,0-0.1,0-0.2c0-1-0.2-1.9-0.5-2.4c-0.4-0.6-1.6-0.9-3.8-0.9v-1.4h14.8V60    c-1.8,0-2.9,0.3-3.3,0.7c-0.4,0.5-0.7,1-0.7,1.6c0,0.1,0,0.2,0,0.3s0,0.2,0,0.3V63v0.1v21.4c0,1.9,0.3,3,0.8,3.4s1.6,0.6,3.3,0.6    v1.3H457v-1.3c2,0,3.2-0.1,3.7-0.3c0.4-0.3,0.7-1.1,0.7-2.6V74.5H445v10.7c0,1.2,0.2,2.1,0.7,2.6s1.3,0.8,2.5,0.8    c0.2,0,0.3,0,0.5,0s0.4,0,0.6,0v1.3h-14.4v-1.3c0.1,0,0.2,0,0.2,0c0.1,0,0.1,0,0.2,0c1,0,1.8-0.1,2.4-0.4s0.9-1.3,0.9-3V63.8    c0-1.8-0.3-2.9-0.9-3.2s-1.6-0.5-3.1-0.5v-1.4h14.8V60c-1.5,0-2.6,0.2-3.3,0.5c-0.7,0.3-1,1.4-1,3.2v9h16.4v-8.9H461.2z"/>
		<path class="st0" d="M474.3,73.8c0-0.8,0.1-1.8,0.4-2.8s0.6-2.1,1.1-3.1c1.1-2.3,2.9-4.4,5.3-6.4c2.4-1.9,5.5-3,9.3-3.1    c0.6,0,1.1,0,1.7,0.1s1.2,0.2,1.7,0.3c3.2,0.8,6.2,2.5,8.9,5.3c2.7,2.7,4.1,6.1,4.1,10.1c0,4.9-1.6,8.8-4.9,11.8s-7,4.6-11.2,4.6    s-8-1.5-11.4-4.6S474.3,78.9,474.3,73.8L474.3,73.8z M500.1,73.5c-0.3-5.2-1.5-8.7-3.4-10.7c-1.9-2-4-3-6.4-3    c-2.7,0-4.8,1-6.1,2.9c-1.3,1.9-2.3,4-2.7,6.3c-0.2,0.9-0.3,1.9-0.4,2.8s-0.1,1.7-0.1,2.5c0,0.1,0,0.2,0,0.2c0,0.1,0,0.1,0,0.2    s0,0.2,0,0.2c0,0.1,0,0.1,0,0.2c0,0.5,0,1,0.1,1.5c0,0.5,0.1,1,0.1,1.5c0.4,2.9,1.4,5.5,3,7.9s3.8,3.6,6.5,3.6c3,0,5.4-1.4,7-4.1    s2.4-6.3,2.5-10.7c0-0.1,0-0.2,0-0.3c0-0.1,0-0.2,0-0.3c0-0.1,0-0.2,0-0.3S500.1,73.6,500.1,73.5L500.1,73.5z"/>
		<path class="st0" d="M513.8,63.4c0-1.5-0.2-2.4-0.6-2.8c-0.4-0.4-1.3-0.6-2.8-0.6v-1.4h25.2l3.3,8l-1,0.3c-1.2-1.5-2.2-2.7-3-3.6    c-0.9-0.9-1.7-1.6-2.5-2.1s-1.6-0.8-2.5-1s-1.9-0.3-3-0.4h-6.7v13.1h3.7c2.5,0,4.3-0.5,5.6-1.7c1.2-1.2,1.9-2.4,2.1-3.8    c0-0.1,0-0.3,0-0.4s0-0.2,0-0.4h1.4v14.7h-1.4c-0.2-2.8-1-4.7-2.4-5.6s-3.3-1.4-5.7-1.4h-3.4v14.1h8.4c2,0,3.8-0.7,5.4-2.1    c1.6-1.4,3.2-3.3,4.7-5.6l1,0.3l-2.3,8.7h-26.8v-1.3c1.2,0,2-0.2,2.6-0.6c0.5-0.4,0.8-1.4,0.8-3.1V71.5L513.8,63.4L513.8,63.4z"/>
		<path class="st0" d="M574.2,64.7c0-2.2-0.5-3.5-1.4-3.9c-0.9-0.5-2.2-0.7-3.7-0.7v-1.4h10.7V60c-0.2,0.1-0.4,0.1-0.6,0.1    c-0.2,0-0.4,0-0.5,0.1c-1,0.1-1.7,0.3-2.2,0.7s-0.7,1.7-0.7,3.8v25.8h-1.7L548,62.1v22.1c0,1.7,0.4,2.9,1.1,3.5    c0.8,0.6,2.1,0.9,3.9,0.9v1.3h-10.7v-1.3c1.3,0,2.3-0.2,3-0.8c0.7-0.5,1-1.7,1-3.6V64.4c0-0.1,0-0.2,0-0.3c0-0.1,0-0.2,0-0.3    c0-1.4-0.2-2.4-0.5-2.9s-1.5-0.8-3.6-0.8v-1.4h11.4l20.5,23.1L574.2,64.7L574.2,64.7z"/>
		<path class="st0" d="M589.2,63.1c0-1.3-0.3-2.1-0.9-2.5c-0.6-0.3-1.8-0.5-3.4-0.5v-1.4h14.8V60c-2,0-3.2,0.3-3.7,0.8    s-0.7,1.1-0.7,2v21.7c0,1.9,0.3,3,1,3.4s1.9,0.6,3.7,0.6v1.3h-15.1v-1.3c0.2,0.1,0.3,0.1,0.5,0.1s0.3,0,0.4,0    c1.4,0,2.4-0.3,2.8-0.9c0.4-0.6,0.6-1.4,0.6-2.5V71.8L589.2,63.1L589.2,63.1z"/>
		<path class="st0" d="M611.5,64.4c-0.5-0.6-0.9-1.2-1.2-1.6c-0.3-0.5-0.7-0.9-1-1.2c-0.6-0.6-1.2-1-2-1.2c-0.7-0.2-1.9-0.3-3.6-0.3    v-1.4h16.8V60c-0.2,0.1-0.5,0.1-0.7,0.1s-0.5,0-0.7,0.1c-1,0.1-1.6,0.2-2,0.6c-0.3,0.3,0.2,1.3,1.6,3l5.4,7l7.1-7.7    c0.1-0.1,0.2-0.2,0.3-0.3s0.2-0.2,0.3-0.3c0.1-0.2,0.3-0.4,0.4-0.6c0.1-0.2,0.1-0.4,0.1-0.6c0-0.4-0.2-0.7-0.6-0.9    c-0.4-0.2-1.1-0.3-2.1-0.3v-1.4H640V60c-1.2,0-2.2,0.2-3,0.6c-0.8,0.3-1.7,0.8-2.4,1.4c-0.3,0.3-0.6,0.5-0.9,0.8    c-0.3,0.3-0.6,0.6-1,0.9L625,72l9.1,12.4c0.7,0.9,1.3,1.7,1.8,2.2s1,1,1.5,1.2c0.6,0.3,1.2,0.5,1.8,0.6s1.4,0.1,2.3,0.1v1.3h-16.8    v-1.3c0.1,0,0.2,0,0.3,0s0.2,0,0.2,0c0.1,0,0.2,0,0.2,0c0.1,0,0.1,0,0.2,0c1,0,1.7-0.1,2.2-0.3c0.4-0.2,0.6-0.5,0.6-0.8    c0-0.5-0.2-1-0.7-1.6s-1-1.3-1.6-2l-5.4-7.1l-8.7,9.7c-0.1,0.2-0.2,0.3-0.3,0.4s-0.1,0.2-0.1,0.4c0,0.4,0.2,0.7,0.7,0.9    c0.5,0.2,1,0.4,1.6,0.4c0,0,0,0,0.1,0c0,0,0,0,0.1,0s0.3,0,0.4,0c0.1,0,0.2,0,0.3,0v1.3h-11.1v-1.3c1.2,0,2.3-0.2,3.3-0.6    s1.8-0.8,2.4-1.3c0.4-0.3,0.7-0.6,1-0.8c0.3-0.3,0.5-0.5,0.7-0.7l9.1-9.8L611.5,64.4z"/>
	</g>
	<polygon class="st0" points="293.4,98.1 7,98.1 7,93.8 289.1,93.8  "/>
	<polygon class="st0" points="641.3,98.1 392.2,98.1 396.5,93.8 641.3,93.8  "/>
	<polygon class="st0" points="300.4,52.4 7,52.4 7,48 298.4,48  "/>
	<polygon class="st0" points="641.3,52.4 385.8,52.4 388.9,48 641.3,48  "/>
	<g>
		<path class="st0" d="M316.1,31.7c0.3,0.5,0.6,0.8,1,1s0.7,0.2,1.1,0c0.7-0.4,0.9-0.9,0.5-1.7l-0.3,0.2c-0.2,0.1-0.4,0.1-0.5-0.1    c-0.1-0.1-0.1-0.2,0-0.3c0-0.1,0.1-0.2,0.3-0.3c0.2-0.1,0.4-0.1,0.5,0c0.2,0.1,0.3,0.2,0.4,0.4c0.1,0.2,0.2,0.5,0.2,0.8    s-0.1,0.5-0.3,0.7c-0.2,0.2-0.4,0.4-0.7,0.6c-0.6,0.3-1.1,0.4-1.7,0.2c-0.5-0.2-0.9-0.5-1.3-1.2c-0.2-0.4-0.3-0.7-0.3-1.1    s0.1-0.7,0.3-1c0.2-0.3,0.5-0.6,0.9-0.8c0.5-0.3,1-0.3,1.5,0c0.1,0.1,0.2,0.1,0.2,0.1s0.1,0,0.2,0h0.1c0,0,0,0,0,0.1l0,0l-0.5,0.3    l-0.6,0.3H317c0,0,0,0,0-0.1c0,0,0,0,0-0.1c0.1-0.1,0.2-0.2,0.3-0.2v-0.1v-0.1c-0.1-0.1-0.2-0.2-0.4-0.2c-0.2,0-0.3,0-0.6,0.2    c-0.4,0.2-0.6,0.5-0.7,1C315.8,30.7,315.9,31.2,316.1,31.7z"/>
		<path class="st0" d="M323.4,27.9C323.4,27.9,323.4,28,323.4,27.9l-0.1,3c0,0,0,0,0,0.1h-0.1c-0.1,0-0.1,0-0.1,0    c-0.8-1.1-1.5-2-2-2.9c-0.1-0.2-0.2-0.3-0.3-0.4s-0.2-0.1-0.3-0.1c-0.1,0-0.2,0-0.3,0c0,0-0.1,0-0.1-0.1s0-0.1,0-0.1    c0.1,0,0.3-0.1,0.4-0.1c0.2,0,0.3-0.1,0.4-0.1s0.3-0.1,0.4-0.1s0.3-0.1,0.4-0.1c0,0,0.1,0,0.1,0.1c0,0,0,0,0,0.1c0,0,0,0,0,0.1    l-0.2,0.1c-0.1,0-0.2,0.1-0.2,0.1s0,0.1,0,0.2c0.1,0.2,0.5,1,1.4,2.3c0,0,0,0,0.1,0c0,0,0,0,0-0.1c0.1-0.9,0.1-1.7,0.1-2.3l0,0    l0,0c0-0.1-0.1-0.2-0.2-0.3c-0.1-0.1-0.2-0.1-0.3-0.2c-0.1,0-0.2,0-0.3,0c0,0,0,0-0.1,0c0,0,0,0,0-0.1s0-0.1,0-0.1    c0.1,0,0.3-0.1,0.4-0.1c0.2,0,0.3-0.1,0.4-0.1s0.2-0.1,0.4-0.1c0.2-0.1,0.3-0.1,0.4-0.1c0,0,0,0,0.1,0c0,0,0,0,0,0.1v0.1    c0,0,0,0,0,0.1c-0.2,0.1-0.3,0.1-0.4,0.2s-0.1,0.2-0.1,0.2l0.1,0.2c0.4,0.6,0.8,1.3,1.4,2.1c0,0,0,0,0.1,0l0,0c0-0.6,0-1.1,0-1.6    s-0.1-0.8-0.1-1c0-0.1-0.1-0.2-0.2-0.2s-0.2,0-0.3,0c-0.1,0-0.1,0-0.1-0.1c0,0,0,0,0-0.1l0,0c0.1,0,0.2-0.1,0.4-0.1    c0.1,0,0.2,0,0.3-0.1c0.1,0,0.2-0.1,0.3-0.1c0.1,0,0.2-0.1,0.3-0.1c0,0,0,0,0.1,0c0,0,0,0,0,0.1s0,0.1-0.1,0.1s-0.2,0.1-0.2,0.2    s-0.1,0.1-0.1,0.2s0,0.2,0,0.3s0,0.2,0,0.4l-0.1,3.3c0,0,0,0,0,0.1H325h-0.1h-0.1c-0.3-0.4-0.6-0.8-0.8-1.2    C324,28.8,323.7,28.4,323.4,27.9L323.4,27.9z"/>
		<path class="st0" d="M329.3,29.3c0.1,0,0.2,0,0.3-0.1s0.2-0.1,0.2-0.1c0.1,0,0.1-0.1,0.2-0.2c0-0.1,0.1-0.1,0.1-0.2s0-0.1,0-0.1    c0-0.2-0.2-0.6-0.5-1.2s-0.6-1-0.8-1.4c-0.1-0.1-0.2-0.2-0.2-0.3s-0.1-0.1-0.2-0.1s-0.1,0-0.2,0c0,0-0.1,0-0.1-0.1s0-0.1,0-0.1    l0.8-0.1l0.8-0.1c0,0,0.1,0,0.1,0.1s0,0.1-0.1,0.1s-0.2,0.1-0.2,0.1c-0.1,0.1-0.1,0.1-0.1,0.2c0,0,0,0.1,0.1,0.2    c0.4,0.7,0.7,1.4,1,2.3l0,0c0.1-0.2,0.2-0.5,0.3-0.8c0.1-0.3,0.1-0.7,0.2-1.1s0.1-0.6,0-0.7c0-0.1-0.1-0.2-0.1-0.2    s-0.2-0.1-0.4-0.1c0,0-0.1,0-0.1-0.1s0-0.1,0.1-0.1l0.7-0.1l0.6-0.1l0,0l0,0c0,0.1,0,0.1-0.1,0.1s-0.2,0.1-0.2,0.2    s-0.1,0.2-0.1,0.4c-0.1,0.7-0.2,1.2-0.3,1.6c-0.1,0.4-0.3,0.8-0.4,1.1c-0.2,0.3-0.4,0.6-0.6,0.8C329.9,29.3,329.7,29.4,329.3,29.3    c-0.1,0.1-0.2,0.1-0.4,0.1c-0.1,0-0.2-0.1-0.3-0.2c-0.1-0.1-0.1-0.2-0.2-0.4c0-0.2,0-0.3,0.1-0.4s0.2-0.2,0.3-0.2    c0.1,0,0.2,0,0.3,0c0.1,0,0.1,0.1,0.1,0.2s0,0.3,0,0.6C329.2,29.1,329.2,29.1,329.3,29.3C329.3,29.2,329.3,29.3,329.3,29.3z"/>
		<path class="st0" d="M340.4,26.8c0,0.6-0.1,1-0.3,1.2c-0.2,0.3-0.6,0.4-1,0.4s-0.8-0.1-1-0.2c-0.2-0.2-0.4-0.4-0.4-0.8    s0.2-0.8,0.5-1c0.4-0.3,0.9-0.4,1.5-0.4l0,0c0,0,0,0,0-0.1v-0.8c0-0.2,0-0.3-0.1-0.4c0-0.1-0.1-0.1-0.2-0.2    c-0.1,0-0.2-0.1-0.4-0.1c0,0,0,0-0.1,0c0,0,0,0,0-0.1c0,0,0,0,0-0.1s0,0,0,0h0.2c0.4,0,0.6,0,0.7,0l0.9-0.1c0,0,0,0,0.1,0    s0,0,0,0.1s0,0.1-0.1,0.1c-0.2,0-0.4,0.1-0.5,0.2s-0.1,0.3-0.1,0.6L340.4,26.8z M339.7,26.3L339.7,26.3c-0.5,0-0.8,0.1-1,0.3    c-0.2,0.2-0.3,0.5-0.3,0.8s0.1,0.5,0.2,0.6s0.3,0.2,0.5,0.2c0.3,0,0.4-0.1,0.6-0.3c0.1-0.2,0.2-0.5,0.2-0.9L339.7,26.3z"/>
		<path class="st0" d="M344.6,28.4c-0.3,0-0.6-0.1-0.8-0.2c-0.2-0.1-0.4-0.3-0.6-0.5S343,27.3,343,27c0-0.2,0.1-0.5,0.2-0.7    s0.3-0.4,0.5-0.5s0.5-0.2,0.8-0.3c-0.2-0.2-0.3-0.4-0.3-0.5s-0.1-0.2-0.1-0.3c0-0.1,0-0.3,0.1-0.4s0.2-0.2,0.4-0.3    c0.2-0.1,0.3-0.1,0.5-0.1c0.3,0,0.5,0.1,0.7,0.2s0.2,0.3,0.2,0.5c0,0.1,0,0.2-0.1,0.3c-0.1,0.1-0.1,0.1-0.3,0.1    c-0.1,0-0.2,0-0.2-0.1c-0.1-0.1-0.1-0.2-0.1-0.3v-0.3l0,0c-0.3,0-0.4,0-0.5,0.1c-0.1,0-0.1,0.1-0.1,0.3c0,0.1,0,0.2,0.1,0.3    s0.2,0.4,0.5,0.8c0.2,0.3,0.4,0.6,0.5,0.8c0.1,0.2,0.2,0.4,0.2,0.6c0,0.4-0.1,0.7-0.4,0.9C345.4,28.3,345,28.4,344.6,28.4z     M344.7,25.8c-0.3,0.1-0.6,0.2-0.8,0.4c-0.2,0.2-0.2,0.5-0.3,0.8c0,0.4,0.1,0.7,0.3,0.9c0.2,0.2,0.4,0.4,0.7,0.4    c0.2,0,0.4-0.1,0.6-0.2c0.1-0.2,0.2-0.4,0.2-0.6c0-0.1,0-0.2-0.1-0.4c0-0.1-0.1-0.3-0.2-0.5s-0.2-0.3-0.3-0.5    S344.7,25.8,344.7,25.8z"/>
		<path class="st0" d="M348.6,27.1c0.1,0,0.2,0,0.2,0.1s0.1,0.1,0.1,0.2l-0.1,0.5c0,0.2,0,0.3,0.1,0.3c0.2,0,0.4,0,0.5-0.1    s0.2-0.2,0.3-0.3c0.1-0.1,0.2-0.3,0.2-0.5s0.1-0.6,0.2-1.1c0.1-0.4,0.2-0.8,0.3-1.1s0.3-0.5,0.6-0.6c0.2-0.1,0.5-0.2,0.9-0.2    c0.5,0,0.9,0.3,1.1,0.6c0.2,0.4,0.3,0.9,0.2,1.6c-0.1,0.7-0.2,1.3-0.5,1.6c-0.3,0.3-0.7,0.5-1.2,0.4c-0.3,0-0.5-0.1-0.6-0.3    c-0.1-0.1-0.2-0.3-0.2-0.5s0.1-0.3,0.2-0.4s0.2-0.1,0.3-0.1c0.1,0,0.2,0,0.2,0.1c0,0,0.1,0.1,0.1,0.2s0,0.2,0,0.3    c0,0.1,0,0.2,0,0.3c0,0.1,0,0.2,0.1,0.2c0.2,0,0.4,0,0.5-0.1s0.2-0.2,0.3-0.5c0.1-0.2,0.1-0.6,0.2-1.2l-2.1-0.2    c-0.1,0.5-0.2,0.9-0.3,1.2c-0.1,0.3-0.3,0.5-0.5,0.6s-0.4,0.2-0.7,0.2c-0.2,0-0.3-0.1-0.4-0.1c-0.1-0.1-0.2-0.2-0.2-0.3    s-0.1-0.3-0.1-0.4c0-0.2,0.1-0.3,0.1-0.4C348.3,27.1,348.4,27.1,348.6,27.1z M351.6,24.6c-0.2,0-0.3,0-0.5,0.1s-0.2,0.1-0.3,0.2    c-0.1,0.1-0.2,0.3-0.3,0.4c-0.1,0.2-0.2,0.5-0.2,0.9l2.1,0.2v-0.1c0-0.5,0-1-0.1-1.3C352.2,24.8,351.9,24.6,351.6,24.6z"/>
		<path class="st0" d="M359.1,28.1c-0.1,0.6-0.3,1-0.6,1.2c-0.3,0.2-0.8,0.3-1.3,0.2c-0.6-0.1-1-0.3-1.2-0.6    c-0.2-0.3-0.3-0.7-0.2-1.3l0.3-1.7c0-0.2,0-0.4,0-0.5s-0.1-0.2-0.1-0.2c-0.1-0.1-0.2-0.1-0.3-0.1l-0.1-0.1c0,0,0,0,0-0.1    c0,0,0,0,0.1,0s0.3,0.1,0.4,0.1c0.2,0,0.3,0.1,0.5,0.1c0.1,0,0.3,0,0.5,0.1c0.2,0,0.3,0,0.5,0.1l0,0c0,0,0,0,0,0.1c0,0,0,0,0,0.1    c0,0,0,0-0.1,0c-0.2,0-0.3,0-0.4,0s-0.2,0.1-0.2,0.2s-0.1,0.2-0.1,0.4l-0.1,0.7l0,0l0,0l2.2,0.4l0,0l0,0V27    c0.1-0.3,0.1-0.6,0.1-0.7s0-0.3,0-0.3c0-0.1-0.1-0.1-0.1-0.2c-0.1,0-0.1-0.1-0.2-0.1l0,0c0,0,0,0,0-0.1c0,0,0,0,0-0.1    c0,0,0,0,0.1,0s0.2,0,0.3,0.1c0.1,0,0.2,0.1,0.3,0.1c0.1,0,0.2,0,0.3,0c0.1,0,0.2,0,0.4,0c0,0,0.1,0,0.1,0.1s0,0.1-0.1,0.1    s-0.2,0-0.3,0.1c-0.1,0.1-0.2,0.2-0.2,0.3c-0.1,0.2-0.1,0.4-0.2,0.8L359.1,28.1z M357.4,29.1c0.4,0.1,0.7,0,1-0.2    c0.2-0.2,0.4-0.5,0.5-0.9l0.1-0.5l0,0l-2.2-0.4h-0.1l-0.1,0.5c-0.1,0.4-0.1,0.8,0.1,1S357,29.1,357.4,29.1z"/>
		<path class="st0" d="M365.3,30.3c-0.2-0.1-0.4-0.2-0.4-0.4c-0.1-0.2,0-0.5,0.1-0.9c0-0.1,0.1-0.3,0.1-0.4l0.1-0.3    c0-0.1,0-0.1,0-0.2s0-0.1-0.1-0.1s-0.1,0-0.2,0.1s-0.1,0.2-0.2,0.3c-0.1,0.2-0.1,0.4-0.3,0.8c-0.1,0.4-0.3,0.7-0.5,0.9    c-0.2,0.3-0.4,0.5-0.7,0.6c-0.3,0.1-0.5,0.1-0.8,0.1c-0.3-0.1-0.5-0.2-0.7-0.5c-0.2-0.2-0.3-0.5-0.3-0.9c0-0.3,0-0.7,0.1-1.1    s0.3-0.8,0.5-1.1c0.2-0.3,0.4-0.5,0.7-0.6c0.3-0.1,0.6-0.1,0.8-0.1c0.2,0.1,0.4,0.2,0.5,0.3c0.1,0.1,0.2,0.3,0.3,0.5    c0.1,0.2,0.1,0.4,0,0.6l0,0c0.1-0.1,0.2-0.2,0.3-0.3c0.1-0.1,0.2-0.1,0.4,0c0.2,0,0.3,0.1,0.3,0.3s0.1,0.3,0,0.5    c0,0.1-0.1,0.3-0.2,0.6c-0.1,0.3-0.2,0.4-0.2,0.5s0,0.2,0,0.3c0,0.1,0.1,0.1,0.2,0.1c0.2,0,0.3,0,0.4-0.1s0.2-0.3,0.3-0.5    c0-0.1,0-0.2,0-0.3c0-0.1,0-0.2-0.1-0.2c0-0.1-0.1-0.1-0.1-0.1l0,0c0,0,0,0,0-0.1c0,0,0,0,0-0.1c0,0,0,0,0.1,0s0.1,0,0.2,0.1    c0.1,0,0.2,0.1,0.2,0.2c0.1,0.1,0.1,0.2,0.1,0.3c0,0.1,0,0.2,0,0.4c-0.1,0.2-0.2,0.4-0.3,0.5C365.8,30.1,365.6,30.2,365.3,30.3    C365.7,30.3,365.5,30.3,365.3,30.3z M362.7,30.5c0.3,0.1,0.5,0,0.8-0.3s0.4-0.7,0.6-1.3c0.2-0.5,0.2-1,0.2-1.4s-0.2-0.6-0.4-0.7    c-0.2-0.1-0.4,0.1-0.7,0.4c-0.2,0.3-0.4,0.7-0.6,1.3c-0.1,0.5-0.2,1-0.2,1.3C362.4,30.2,362.5,30.4,362.7,30.5z"/>
		<path class="st0" d="M368.3,31.1c0.1,0,0.1,0.1,0.2,0.2s0,0.1,0,0.2l-0.2,0.5c-0.1,0.2-0.1,0.3,0,0.3c0.2,0.1,0.3,0.1,0.5,0.1    c0.1,0,0.3-0.1,0.4-0.2s0.2-0.2,0.3-0.4s0.3-0.5,0.5-1c0.2-0.4,0.4-0.7,0.6-1c0.2-0.2,0.4-0.4,0.7-0.5c0.3-0.1,0.6,0,0.9,0.1    c0.5,0.2,0.8,0.5,0.8,0.9c0.1,0.4,0,1-0.2,1.6c-0.3,0.7-0.6,1.2-0.9,1.4c-0.4,0.2-0.8,0.3-1.2,0.1c-0.3-0.1-0.4-0.2-0.5-0.4    s-0.1-0.4,0-0.6c0.1-0.2,0.1-0.3,0.3-0.3s0.2-0.1,0.4,0c0.1,0,0.1,0.1,0.2,0.1s0,0.1,0,0.2c0,0.1-0.1,0.1-0.1,0.3    c-0.1,0.1-0.1,0.2-0.1,0.3s0,0.2,0,0.2c0.2,0.1,0.4,0.1,0.5,0.1c0.1-0.1,0.3-0.2,0.4-0.4s0.3-0.6,0.5-1.1l-1.9-0.7    c-0.2,0.5-0.4,0.8-0.6,1.1c-0.2,0.2-0.4,0.4-0.6,0.5s-0.5,0.1-0.7,0s-0.3-0.1-0.3-0.3s-0.1-0.2-0.1-0.4c0-0.1,0-0.3,0-0.4    c0.1-0.2,0.1-0.3,0.2-0.3C368,31,368.1,31,368.3,31.1z M371.9,29.5c-0.2-0.1-0.3-0.1-0.5-0.1c-0.1,0-0.3,0.1-0.4,0.1    c-0.1,0.1-0.2,0.2-0.4,0.4c-0.1,0.2-0.3,0.4-0.5,0.8l1.9,0.7v-0.1c0.2-0.5,0.3-0.9,0.2-1.2S372.2,29.6,371.9,29.5z"/>
	</g>
</g>
</svg>