<svg xmlns="http://www.w3.org/2000/svg" xmlns:svg="http://www.w3.org/2000/svg" id="svg10" width="191" height="167" version="1.1"><metadata id="metadata16"/><g id="g6" transform="translate(-5,-4)"><g id="g4" transform="translate(5,-880)"><path id="path2" d="m 78,1050 c -6,-3 -16,-12 -32,-33 -23,-30 -32,-37 -43,-40 -2,0 -3,0 -3,-1 0,0 5,-5 11,-11 6,-6 18,-19 27,-29 18,-21 35,-40 36,-40 0,0 2,3 4,6 5,9 10,15 15,15 7,0 16,-10 24,-26 l 3,-7 4,6 c 13,19 33,43 52,62 l 15,15 -5,1 c -7,2 -13,5 -21,12 -6,5 -13,12 -38,40 -17,20 -32,31 -40,31 -2,0 -5,-1 -7,-2 z m 24,-49 c 7,-3 17,-13 25,-25 6,-9 12,-20 12,-21 0,0 -1,-1 -2,-1 -1,0 -7,-2 -13,-5 -12,-6 -20,-8 -26,-8 -4,1 -15,7 -29,16 -5,4 -11,8 -12,8 -2,0 -3,1 -3,1 0,1 7,12 10,17 13,18 25,24 38,17 z" style="fill:#d40000"/></g></g><text id="text8" x="-18" y="226" font-size="64" font-weight="bold" style="font-weight:700;font-size:64px;font-family:'Droid Sans';fill:#fff">eSpeak</text></svg>