<?xml version="1.0" encoding="UTF-8" standalone="no"?>
<svg
   xmlns:dc="http://purl.org/dc/elements/1.1/"
   xmlns:cc="http://creativecommons.org/ns#"
   xmlns:rdf="http://www.w3.org/1999/02/22-rdf-syntax-ns#"
   xmlns:svg="http://www.w3.org/2000/svg"
   xmlns="http://www.w3.org/2000/svg"
   xmlns:sodipodi="http://sodipodi.sourceforge.net/DTD/sodipodi-0.dtd"
   xmlns:inkscape="http://www.inkscape.org/namespaces/inkscape"
   width="191"
   height="167"
   version="1.1"
   id="svg10"
   sodipodi:docname="espeak-ng-android-launcher.svg"
   inkscape:export-filename="espeak-ng-android-launcher.png"
   inkscape:export-xdpi="301.57001"
   inkscape:export-ydpi="301.57001"
   inkscape:version="0.92.5 (2060ec1f9f, 2020-04-08)">
  <metadata
     id="metadata16">
    <rdf:RDF>
      <cc:Work
         rdf:about="">
        <dc:format>image/svg+xml</dc:format>
        <dc:type
           rdf:resource="http://purl.org/dc/dcmitype/StillImage" />
        <dc:title></dc:title>
      </cc:Work>
    </rdf:RDF>
  </metadata>
  <defs
     id="defs14" />
  <sodipodi:namedview
     pagecolor="#ffffff"
     bordercolor="#666666"
     borderopacity="1"
     objecttolerance="10"
     gridtolerance="10"
     guidetolerance="10"
     inkscape:pageopacity="0"
     inkscape:pageshadow="2"
     inkscape:window-width="640"
     inkscape:window-height="480"
     id="namedview12"
     showgrid="false"
     fit-margin-top="0"
     fit-margin-left="0"
     fit-margin-right="0"
     fit-margin-bottom="0"
     inkscape:zoom="3.0415971"
     inkscape:cx="95"
     inkscape:cy="43"
     inkscape:current-layer="svg10" />
  <g
     transform="translate(-5,-4)"
     id="g6">
    <g
       transform="translate(5,-880)"
       id="g4">
      <!-- width: 200 height: 175 -->
      <path
         d="m 78,1050 c -6,-3 -16,-12 -32,-33 -23,-30 -32,-37 -43,-40 -2,0 -3,0 -3,-1 0,0 5,-5 11,-11 6,-6 18,-19 27,-29 18,-21 35,-40 36,-40 0,0 2,3 4,6 5,9 10,15 15,15 7,0 16,-10 24,-26 l 3,-7 4,6 c 13,19 33,43 52,62 l 15,15 -5,1 c -7,2 -13,5 -21,12 -6,5 -13,12 -38,40 -17,20 -32,31 -40,31 -2,0 -5,-1 -7,-2 z m 24,-49 c 7,-3 17,-13 25,-25 6,-9 12,-20 12,-21 0,0 -1,-1 -2,-1 -1,0 -7,-2 -13,-5 -12,-6 -20,-8 -26,-8 -4,1 -15,7 -29,16 -5,4 -11,8 -12,8 -2,0 -3,1 -3,1 0,1 7,12 10,17 13,18 25,24 38,17 z"
         id="path2"
         inkscape:connector-curvature="0"
         style="fill:#d40000" />
    </g>
  </g>
  <text
     x="-18"
     y="226"
     font-size="64px"
     font-weight="bold"
     id="text8"
     style="font-weight:bold;font-size:64px;font-family:'Droid Sans';fill:#ffffff">eSpeak</text>
</svg>
