<svg xmlns="http://www.w3.org/2000/svg" xmlns:xlink="http://www.w3.org/1999/xlink" width="303.044" height="72.375" enable-background="new 0 0 303.044 72.375" overflow="visible" viewBox="0 0 303.044 72.375" xml:space="preserve"><metadata><variableSets xmlns="http://ns.adobe.com/Variables/1.0/"><variableSet locked="none" varSetName="binding1"><variables/><v:sampleDataSets xmlns="http://ns.adobe.com/GenericCustomNamespace/1.0/" xmlns:v="http://ns.adobe.com/Variables/1.0/"/></variableSet></variableSets><sfw xmlns="http://ns.adobe.com/SaveForWeb/1.0/"><slices/><sliceSourceBounds width="303.044" height="72.375" x="226.908" y="288.172" bottomLeftOrigin="true"/></sfw><?xpacket begin='﻿' id='W5M0MpCehiHzreSzNTczkc9d'?><?xpacket end='w'?></metadata><switch><g><g id="Foreground"><g><path fill-rule="evenodd" d="M94.282,49.116c-2.759-5.03-7.465-7.032-12.928-7.032 c-7.951,0-14.28,5.625-14.28,15.146c0,9.682,5.95,15.145,14.55,15.145c5.517,0,10.223-3.029,12.819-7.627l-6.058-3.083 c-1.353,3.246-3.408,4.22-6.004,4.22c-4.49,0-6.545-3.732-6.545-8.654c0-4.923,1.731-8.655,6.545-8.655 c1.298,0,3.895,0.703,5.409,3.949L94.282,49.116z" clip-rule="evenodd"/><path fill-rule="evenodd" d="M109.746,48.575c4.814,0,6.87,3.732,6.87,8.33 c0,5.247-2.056,8.979-6.87,8.979s-6.869-3.732-6.869-8.654C102.877,52.308,104.932,48.575,109.746,48.575z M109.746,42.084 c-8.979,0-15.307,5.463-15.307,15.146c0,9.682,6.328,15.145,15.307,15.145s15.308-5.463,15.308-15.145 C125.054,47.548,118.725,42.084,109.746,42.084z" clip-rule="evenodd"/><path fill-rule="evenodd" d="M126.783,71.617h8.438V53.714 c0-2.596,1.082-4.814,4.489-4.814c3.246,0,4.111,1.893,4.111,4.706v18.012h8.438V53.93c0-2.921,1.46-5.03,4.273-5.03 c3.191,0,4.327,1.839,4.327,5.896v16.821h8.438v-21.96c0-6.599-6.058-7.573-8.871-7.573c-3.354,0-6.491,1.028-9.249,3.84 c-1.894-2.542-4.327-3.84-7.627-3.84c-2.596,0-6.166,0.757-8.33,3.3v-2.542h-8.438V71.617z" clip-rule="evenodd"/><path fill-rule="evenodd" d="M171.997,71.617h8.438V53.714 c0-2.596,1.082-4.814,4.489-4.814c3.246,0,4.111,1.893,4.111,4.706v18.012h8.438V53.93c0-2.921,1.46-5.03,4.272-5.03 c3.191,0,4.328,1.839,4.328,5.896v16.821h8.438v-21.96c0-6.599-6.059-7.573-8.871-7.573c-3.354,0-6.49,1.028-9.249,3.84 c-1.893-2.542-4.327-3.84-7.627-3.84c-2.596,0-6.166,0.757-8.33,3.3v-2.542h-8.438V71.617z" clip-rule="evenodd"/><path fill-rule="evenodd" d="M231.544,48.575c4.813,0,6.869,3.732,6.869,8.33 c0,5.247-2.056,8.979-6.869,8.979c-4.814,0-6.87-3.732-6.87-8.654C224.674,52.308,226.73,48.575,231.544,48.575z M231.544,42.084c-8.979,0-15.308,5.463-15.308,15.146c0,9.682,6.328,15.145,15.308,15.145 c8.979,0,15.308-5.463,15.308-15.145C246.852,47.548,240.523,42.084,231.544,42.084z" clip-rule="evenodd"/><path fill-rule="evenodd" d="M249.122,71.617h8.438V53.714 c0-2.596,1.082-4.814,4.49-4.814c3.245,0,4.11,1.893,4.11,4.706v18.012h8.438V50.36c0-4.327-1.894-8.276-8.709-8.276 c-2.596,0-6.166,0.757-8.33,3.3v-2.542h-8.438V71.617z" clip-rule="evenodd"/><path fill-rule="evenodd" d="M302.774,46.25c-3.895-2.596-8.275-4.165-12.711-4.165 c-5.843,0-12.171,2.813-12.171,10.061c0,10.223,17.038,6.653,17.038,11.143c0,2.597-3.19,2.921-4.598,2.921 c-3.84,0-6.49-1.568-9.087-4.057l-5.247,4.543c4.22,3.895,7.789,5.68,14.064,5.68c6.273,0,12.981-2.705,12.981-10.277 c0-10.764-17.038-6.707-17.038-11.629c0-1.46,1.514-2.217,3.623-2.217c2.651,0,6.275,1.082,7.951,3.083L302.774,46.25z" clip-rule="evenodd"/><path fill-rule="evenodd" d="M94.282,16.011c-2.759-5.03-7.465-7.032-12.928-7.032 c-7.951,0-14.28,5.625-14.28,15.145c0,9.682,5.95,15.146,14.55,15.146c5.517,0,10.223-3.029,12.819-7.627l-6.058-3.083 c-1.353,3.246-3.408,4.219-6.004,4.219c-4.49,0-6.545-3.732-6.545-8.655c0-4.922,1.731-8.654,6.545-8.654 c1.298,0,3.895,0.703,5.409,3.949L94.282,16.011z" clip-rule="evenodd"/><path fill-rule="evenodd" d="M96.34,38.512h8.438v-16.66 c0-3.191,2.001-4.057,7.032-4.652l0.919-0.108l-0.054-7.464c-2.975,0.217-6.058,1.298-7.897,3.029V9.736H96.34V38.512z" clip-rule="evenodd"/><path fill-rule="evenodd" d="M141.386,25.855c-0.054-8.871-3.624-16.876-14.118-16.876 c-8.763,0-14.118,5.842-14.118,16.011c0,8.113,5.193,14.28,14.118,14.28c6.437,0,11.034-2.542,13.955-7.951l-6.329-3.3 c-2.434,3.462-3.895,5.084-7.032,5.084c-2.704,0-6.22-1.731-6.274-7.248H141.386z M121.481,20.663 c0.378-3.787,3.299-5.517,5.733-5.517s5.463,1.298,5.733,5.517H121.481z" clip-rule="evenodd"/><path fill-rule="evenodd" d="M160.742,26.504c0,4.381-2.488,6.599-5.788,6.599 c-2.056,0-3.949-0.974-3.949-3.245c0-2.326,1.947-3.137,4.057-3.732l5.68-1.623V26.504z M168.855,17.309 c-0.054-6.491-4.976-8.33-12.819-8.33c-3.895,0-11.575,0.757-11.846,9.033h8.114c0.433-2.867,1.73-3.84,4.435-3.84 c2.272,0,4.003,0.919,4.003,3.083v2.38l-3.083,0.433c-9.195,1.298-14.767,3.732-14.767,10.656 c0,5.517,4.111,8.546,9.628,8.546c3.029,0,7.248-1.46,8.654-3.732h0.108c0.054,0.974,0.217,2.001,0.541,2.975h7.789 c-0.703-1.785-0.757-4.002-0.757-6.004V17.309z" clip-rule="evenodd"/><path fill-rule="evenodd" d="M188.699,10.277h-5.031v-8.33h-8.438v8.33h-4.11v5.192 h4.11v15.146c0,4.165,1.028,8.654,8.223,8.654c1.839,0,4.327-0.216,5.409-0.325v-6.653c-0.434,0.054-1.623,0.162-2.542,0.162 c-1.516,0-2.651-0.595-2.651-2.867V15.47h5.031V10.277z" clip-rule="evenodd"/><path fill-rule="evenodd" d="M191.876,9.736v28.776h8.438V9.736H191.876z M200.315,6.491V0h-8.438v6.491H200.315z" clip-rule="evenodd"/><polygon fill-rule="evenodd" points="211.67 38.512 220.162 38.512 230.007 9.736 221.028 9.736 216.051 30.074 215.944 30.074 210.966 9.736 201.934 9.736" clip-rule="evenodd"/><path fill-rule="evenodd" d="M257.256,25.855c-0.054-8.871-3.624-16.876-14.117-16.876 c-8.764,0-14.117,5.842-14.117,16.011c0,8.113,5.191,14.28,14.117,14.28c6.437,0,11.034-2.542,13.955-7.951l-6.329-3.3 c-2.434,3.462-3.895,5.084-7.031,5.084c-2.704,0-6.221-1.731-6.274-7.248H257.256z M237.351,20.663 c0.379-3.787,3.299-5.517,5.733-5.517s5.464,1.298,5.734,5.517H237.351z" clip-rule="evenodd"/><g><path fill-rule="evenodd" d="M31.602,8.495c-8.682,0-16.322,3.213-22.226,9.203 C3.299,23.863,0,31.85,0,40.185c0,8.421,3.212,16.235,9.29,22.313c6.077,6.077,13.978,9.376,22.312,9.376 s16.409-3.299,22.66-9.463c5.904-5.817,9.029-13.544,9.029-22.226c0-8.595-3.125-16.409-9.116-22.4 C48.098,11.708,40.284,8.495,31.602,8.495z M31.689,14.226c7.119,0,13.457,2.691,18.406,7.64 c4.861,4.862,7.466,11.287,7.466,18.319c0,7.119-2.518,13.37-7.38,18.146c-5.123,5.035-11.721,7.727-18.493,7.727 c-6.859,0-13.284-2.691-18.232-7.64c-4.949-4.95-7.727-11.461-7.727-18.233c0-6.859,2.778-13.37,7.727-18.406 C18.318,16.831,24.57,14.226,31.689,14.226z" clip-rule="evenodd"/><path fill-rule="evenodd" d="M31.28,34.919c-1.79-3.264-4.844-4.563-8.389-4.563 c-5.16,0-9.267,3.65-9.267,9.829c0,6.283,3.861,9.829,9.443,9.829c3.581,0,6.634-1.966,8.319-4.949l-3.932-2.001 c-0.878,2.106-2.211,2.738-3.896,2.738c-2.914,0-4.247-2.422-4.247-5.616s1.123-5.617,4.247-5.617 c0.842,0,2.527,0.457,3.51,2.562L31.28,34.919z" clip-rule="evenodd"/><path fill-rule="evenodd" d="M49.562,34.919c-1.791-3.264-4.844-4.563-8.389-4.563 c-5.16,0-9.268,3.65-9.268,9.829c0,6.283,3.862,9.829,9.443,9.829c3.581,0,6.634-1.966,8.319-4.949l-3.932-2.001 c-0.877,2.106-2.211,2.738-3.896,2.738c-2.913,0-4.248-2.422-4.248-5.616s1.124-5.617,4.248-5.617 c0.842,0,2.527,0.457,3.511,2.562L49.562,34.919z" clip-rule="evenodd"/></g></g></g></g></switch></svg>